<mxfile host="app.diagrams.net" agent="Mozilla/5.0 (Macintosh; Intel Mac OS X 10_15_7) AppleWebKit/537.36 (KHTML, like Gecko) Chrome/139.0.0.0 Safari/537.36" version="28.2.1">
  <diagram name="Page-1" id="QmIrFQa1cvEONQeuqGTy">
    <mxGraphModel dx="2914" dy="2173" grid="1" gridSize="10" guides="1" tooltips="1" connect="1" arrows="1" fold="1" page="1" pageScale="1" pageWidth="850" pageHeight="1100" math="0" shadow="0">
      <root>
        <mxCell id="0" />
        <mxCell id="1" parent="0" />
        <mxCell id="nR0HkuhDGCpSzbCuDiu6-6" value="" style="rounded=0;whiteSpace=wrap;html=1;dashed=1;strokeColor=none;fillColor=none;" parent="1" vertex="1">
          <mxGeometry x="835" y="1160" width="370" height="450" as="geometry" />
        </mxCell>
        <mxCell id="t2AcmH2n_HT6Ft2l21uT-8" style="edgeStyle=orthogonalEdgeStyle;rounded=0;orthogonalLoop=1;jettySize=auto;html=1;entryX=0;entryY=0.5;entryDx=0;entryDy=0;" parent="1" source="t2AcmH2n_HT6Ft2l21uT-1" target="t2AcmH2n_HT6Ft2l21uT-3" edge="1">
          <mxGeometry relative="1" as="geometry">
            <mxPoint x="120" y="480" as="targetPoint" />
          </mxGeometry>
        </mxCell>
        <mxCell id="t2AcmH2n_HT6Ft2l21uT-9" style="edgeStyle=orthogonalEdgeStyle;rounded=0;orthogonalLoop=1;jettySize=auto;html=1;entryX=0;entryY=0.5;entryDx=0;entryDy=0;" parent="1" source="t2AcmH2n_HT6Ft2l21uT-1" target="t2AcmH2n_HT6Ft2l21uT-4" edge="1">
          <mxGeometry relative="1" as="geometry" />
        </mxCell>
        <mxCell id="t2AcmH2n_HT6Ft2l21uT-10" style="edgeStyle=orthogonalEdgeStyle;rounded=0;orthogonalLoop=1;jettySize=auto;html=1;entryX=0;entryY=0.5;entryDx=0;entryDy=0;" parent="1" source="t2AcmH2n_HT6Ft2l21uT-1" target="t2AcmH2n_HT6Ft2l21uT-5" edge="1">
          <mxGeometry relative="1" as="geometry" />
        </mxCell>
        <mxCell id="t2AcmH2n_HT6Ft2l21uT-11" style="edgeStyle=orthogonalEdgeStyle;rounded=0;orthogonalLoop=1;jettySize=auto;html=1;entryX=0;entryY=0.5;entryDx=0;entryDy=0;" parent="1" source="t2AcmH2n_HT6Ft2l21uT-1" target="t2AcmH2n_HT6Ft2l21uT-6" edge="1">
          <mxGeometry relative="1" as="geometry" />
        </mxCell>
        <mxCell id="t2AcmH2n_HT6Ft2l21uT-12" style="edgeStyle=orthogonalEdgeStyle;rounded=0;orthogonalLoop=1;jettySize=auto;html=1;entryX=0;entryY=0.5;entryDx=0;entryDy=0;" parent="1" source="t2AcmH2n_HT6Ft2l21uT-1" target="t2AcmH2n_HT6Ft2l21uT-7" edge="1">
          <mxGeometry relative="1" as="geometry" />
        </mxCell>
        <mxCell id="t2AcmH2n_HT6Ft2l21uT-13" style="edgeStyle=orthogonalEdgeStyle;rounded=0;orthogonalLoop=1;jettySize=auto;html=1;entryX=0;entryY=0.5;entryDx=0;entryDy=0;" parent="1" source="t2AcmH2n_HT6Ft2l21uT-1" target="t2AcmH2n_HT6Ft2l21uT-2" edge="1">
          <mxGeometry relative="1" as="geometry" />
        </mxCell>
        <mxCell id="t2AcmH2n_HT6Ft2l21uT-57" style="edgeStyle=orthogonalEdgeStyle;rounded=0;orthogonalLoop=1;jettySize=auto;html=1;entryX=0;entryY=0.5;entryDx=0;entryDy=0;" parent="1" source="t2AcmH2n_HT6Ft2l21uT-1" target="t2AcmH2n_HT6Ft2l21uT-56" edge="1">
          <mxGeometry relative="1" as="geometry" />
        </mxCell>
        <mxCell id="tT5IO1cDAPoozINB5vS--2" style="edgeStyle=orthogonalEdgeStyle;rounded=0;orthogonalLoop=1;jettySize=auto;html=1;entryX=0;entryY=0.5;entryDx=0;entryDy=0;" edge="1" parent="1" source="t2AcmH2n_HT6Ft2l21uT-1" target="tT5IO1cDAPoozINB5vS--1">
          <mxGeometry relative="1" as="geometry" />
        </mxCell>
        <mxCell id="t2AcmH2n_HT6Ft2l21uT-1" value="Oracle DB" style="rounded=1;whiteSpace=wrap;html=1;fillColor=#d5e8d4;strokeColor=#82b366;fontStyle=1" parent="1" vertex="1">
          <mxGeometry x="-180" y="725" width="140" height="70" as="geometry" />
        </mxCell>
        <mxCell id="t2AcmH2n_HT6Ft2l21uT-2" value="基础" style="rounded=1;whiteSpace=wrap;html=1;fillColor=#d5e8d4;strokeColor=#82b366;fontStyle=1" parent="1" vertex="1">
          <mxGeometry x="110" y="-130" width="190" height="80" as="geometry" />
        </mxCell>
        <mxCell id="t2AcmH2n_HT6Ft2l21uT-3" value="存储过程" style="rounded=1;whiteSpace=wrap;html=1;fontStyle=1" parent="1" vertex="1">
          <mxGeometry x="110" y="80" width="220" height="80" as="geometry" />
        </mxCell>
        <mxCell id="rXUWPWZFfcHT6W9mrPYL-103" style="edgeStyle=orthogonalEdgeStyle;rounded=0;orthogonalLoop=1;jettySize=auto;html=1;entryX=0;entryY=0.5;entryDx=0;entryDy=0;" parent="1" source="t2AcmH2n_HT6Ft2l21uT-4" target="rXUWPWZFfcHT6W9mrPYL-98" edge="1">
          <mxGeometry relative="1" as="geometry" />
        </mxCell>
        <mxCell id="rXUWPWZFfcHT6W9mrPYL-117" style="edgeStyle=orthogonalEdgeStyle;rounded=0;orthogonalLoop=1;jettySize=auto;html=1;entryX=0;entryY=0.5;entryDx=0;entryDy=0;" parent="1" source="t2AcmH2n_HT6Ft2l21uT-4" target="rXUWPWZFfcHT6W9mrPYL-116" edge="1">
          <mxGeometry relative="1" as="geometry" />
        </mxCell>
        <mxCell id="rXUWPWZFfcHT6W9mrPYL-133" style="edgeStyle=orthogonalEdgeStyle;rounded=0;orthogonalLoop=1;jettySize=auto;html=1;entryX=0;entryY=0.5;entryDx=0;entryDy=0;" parent="1" source="t2AcmH2n_HT6Ft2l21uT-4" target="rXUWPWZFfcHT6W9mrPYL-132" edge="1">
          <mxGeometry relative="1" as="geometry" />
        </mxCell>
        <mxCell id="t2AcmH2n_HT6Ft2l21uT-4" value="调优" style="rounded=1;whiteSpace=wrap;html=1;fillColor=#d5e8d4;strokeColor=#82b366;fontStyle=1" parent="1" vertex="1">
          <mxGeometry x="105" y="1260" width="220" height="80" as="geometry" />
        </mxCell>
        <mxCell id="nR0HkuhDGCpSzbCuDiu6-17" style="edgeStyle=orthogonalEdgeStyle;rounded=0;orthogonalLoop=1;jettySize=auto;html=1;strokeColor=#DDA15E;fontColor=#FEFAE0;fillColor=#BC6C25;entryX=0;entryY=0.5;entryDx=0;entryDy=0;" parent="1" source="t2AcmH2n_HT6Ft2l21uT-5" target="nR0HkuhDGCpSzbCuDiu6-10" edge="1">
          <mxGeometry relative="1" as="geometry">
            <mxPoint x="370" y="1960" as="targetPoint" />
          </mxGeometry>
        </mxCell>
        <mxCell id="nR0HkuhDGCpSzbCuDiu6-18" style="edgeStyle=orthogonalEdgeStyle;rounded=0;orthogonalLoop=1;jettySize=auto;html=1;entryX=0;entryY=0.5;entryDx=0;entryDy=0;strokeColor=#DDA15E;fontColor=#FEFAE0;fillColor=#BC6C25;" parent="1" source="t2AcmH2n_HT6Ft2l21uT-5" target="nR0HkuhDGCpSzbCuDiu6-11" edge="1">
          <mxGeometry relative="1" as="geometry" />
        </mxCell>
        <mxCell id="nR0HkuhDGCpSzbCuDiu6-19" style="edgeStyle=orthogonalEdgeStyle;rounded=0;orthogonalLoop=1;jettySize=auto;html=1;entryX=0;entryY=0.5;entryDx=0;entryDy=0;strokeColor=#DDA15E;fontColor=#FEFAE0;fillColor=#BC6C25;" parent="1" source="t2AcmH2n_HT6Ft2l21uT-5" target="nR0HkuhDGCpSzbCuDiu6-13" edge="1">
          <mxGeometry relative="1" as="geometry" />
        </mxCell>
        <mxCell id="nR0HkuhDGCpSzbCuDiu6-20" style="edgeStyle=orthogonalEdgeStyle;rounded=0;orthogonalLoop=1;jettySize=auto;html=1;entryX=0;entryY=0.5;entryDx=0;entryDy=0;strokeColor=#DDA15E;fontColor=#FEFAE0;fillColor=#BC6C25;" parent="1" source="t2AcmH2n_HT6Ft2l21uT-5" target="nR0HkuhDGCpSzbCuDiu6-14" edge="1">
          <mxGeometry relative="1" as="geometry" />
        </mxCell>
        <mxCell id="nR0HkuhDGCpSzbCuDiu6-21" style="edgeStyle=orthogonalEdgeStyle;rounded=0;orthogonalLoop=1;jettySize=auto;html=1;entryX=0;entryY=0.5;entryDx=0;entryDy=0;strokeColor=#DDA15E;fontColor=#FEFAE0;fillColor=#BC6C25;" parent="1" source="t2AcmH2n_HT6Ft2l21uT-5" target="nR0HkuhDGCpSzbCuDiu6-15" edge="1">
          <mxGeometry relative="1" as="geometry" />
        </mxCell>
        <mxCell id="nR0HkuhDGCpSzbCuDiu6-22" style="edgeStyle=orthogonalEdgeStyle;rounded=0;orthogonalLoop=1;jettySize=auto;html=1;entryX=0;entryY=0.5;entryDx=0;entryDy=0;strokeColor=#DDA15E;fontColor=#FEFAE0;fillColor=#BC6C25;" parent="1" source="t2AcmH2n_HT6Ft2l21uT-5" target="nR0HkuhDGCpSzbCuDiu6-16" edge="1">
          <mxGeometry relative="1" as="geometry" />
        </mxCell>
        <mxCell id="nR0HkuhDGCpSzbCuDiu6-25" style="edgeStyle=orthogonalEdgeStyle;rounded=0;orthogonalLoop=1;jettySize=auto;html=1;entryX=0;entryY=0.5;entryDx=0;entryDy=0;strokeColor=#DDA15E;fontColor=#FEFAE0;fillColor=#BC6C25;" parent="1" source="t2AcmH2n_HT6Ft2l21uT-5" target="nR0HkuhDGCpSzbCuDiu6-23" edge="1">
          <mxGeometry relative="1" as="geometry" />
        </mxCell>
        <mxCell id="nR0HkuhDGCpSzbCuDiu6-26" style="edgeStyle=orthogonalEdgeStyle;rounded=0;orthogonalLoop=1;jettySize=auto;html=1;entryX=0;entryY=0.5;entryDx=0;entryDy=0;strokeColor=#DDA15E;fontColor=#FEFAE0;fillColor=#BC6C25;" parent="1" source="t2AcmH2n_HT6Ft2l21uT-5" target="nR0HkuhDGCpSzbCuDiu6-24" edge="1">
          <mxGeometry relative="1" as="geometry" />
        </mxCell>
        <mxCell id="t2AcmH2n_HT6Ft2l21uT-5" value="Context" style="rounded=1;whiteSpace=wrap;html=1;fillColor=#d5e8d4;strokeColor=#82b366;fontStyle=1" parent="1" vertex="1">
          <mxGeometry x="105" y="1940" width="220" height="80" as="geometry" />
        </mxCell>
        <mxCell id="nR0HkuhDGCpSzbCuDiu6-35" style="edgeStyle=orthogonalEdgeStyle;rounded=0;orthogonalLoop=1;jettySize=auto;html=1;entryX=0;entryY=0.5;entryDx=0;entryDy=0;strokeColor=#DDA15E;fontColor=#FEFAE0;fillColor=#BC6C25;" parent="1" source="t2AcmH2n_HT6Ft2l21uT-6" target="nR0HkuhDGCpSzbCuDiu6-27" edge="1">
          <mxGeometry relative="1" as="geometry" />
        </mxCell>
        <mxCell id="nR0HkuhDGCpSzbCuDiu6-36" style="edgeStyle=orthogonalEdgeStyle;rounded=0;orthogonalLoop=1;jettySize=auto;html=1;entryX=0;entryY=0.75;entryDx=0;entryDy=0;strokeColor=#DDA15E;fontColor=#FEFAE0;fillColor=#BC6C25;" parent="1" source="t2AcmH2n_HT6Ft2l21uT-6" target="nR0HkuhDGCpSzbCuDiu6-28" edge="1">
          <mxGeometry relative="1" as="geometry" />
        </mxCell>
        <mxCell id="nR0HkuhDGCpSzbCuDiu6-37" style="edgeStyle=orthogonalEdgeStyle;rounded=0;orthogonalLoop=1;jettySize=auto;html=1;strokeColor=#DDA15E;fontColor=#FEFAE0;fillColor=#BC6C25;" parent="1" source="t2AcmH2n_HT6Ft2l21uT-6" target="nR0HkuhDGCpSzbCuDiu6-29" edge="1">
          <mxGeometry relative="1" as="geometry" />
        </mxCell>
        <mxCell id="nR0HkuhDGCpSzbCuDiu6-38" style="edgeStyle=orthogonalEdgeStyle;rounded=0;orthogonalLoop=1;jettySize=auto;html=1;entryX=0;entryY=0.5;entryDx=0;entryDy=0;strokeColor=#DDA15E;fontColor=#FEFAE0;fillColor=#BC6C25;" parent="1" source="t2AcmH2n_HT6Ft2l21uT-6" target="nR0HkuhDGCpSzbCuDiu6-30" edge="1">
          <mxGeometry relative="1" as="geometry" />
        </mxCell>
        <mxCell id="nR0HkuhDGCpSzbCuDiu6-39" style="edgeStyle=orthogonalEdgeStyle;rounded=0;orthogonalLoop=1;jettySize=auto;html=1;entryX=0;entryY=0.25;entryDx=0;entryDy=0;strokeColor=#DDA15E;fontColor=#FEFAE0;fillColor=#BC6C25;" parent="1" source="t2AcmH2n_HT6Ft2l21uT-6" target="nR0HkuhDGCpSzbCuDiu6-31" edge="1">
          <mxGeometry relative="1" as="geometry" />
        </mxCell>
        <mxCell id="t2AcmH2n_HT6Ft2l21uT-6" value="Core" style="rounded=1;whiteSpace=wrap;html=1;fillColor=#d5e8d4;strokeColor=#82b366;fontStyle=1" parent="1" vertex="1">
          <mxGeometry x="105" y="2210" width="220" height="80" as="geometry" />
        </mxCell>
        <mxCell id="eq9ACowOTim6wulsKato-5" style="edgeStyle=orthogonalEdgeStyle;rounded=0;orthogonalLoop=1;jettySize=auto;html=1;entryX=0;entryY=0.5;entryDx=0;entryDy=0;" parent="1" source="t2AcmH2n_HT6Ft2l21uT-7" target="eq9ACowOTim6wulsKato-1" edge="1">
          <mxGeometry relative="1" as="geometry" />
        </mxCell>
        <mxCell id="eq9ACowOTim6wulsKato-19" style="edgeStyle=orthogonalEdgeStyle;rounded=0;orthogonalLoop=1;jettySize=auto;html=1;entryX=0;entryY=0.5;entryDx=0;entryDy=0;" parent="1" source="t2AcmH2n_HT6Ft2l21uT-7" target="eq9ACowOTim6wulsKato-17" edge="1">
          <mxGeometry relative="1" as="geometry" />
        </mxCell>
        <mxCell id="eq9ACowOTim6wulsKato-20" style="edgeStyle=orthogonalEdgeStyle;rounded=0;orthogonalLoop=1;jettySize=auto;html=1;entryX=0;entryY=0.5;entryDx=0;entryDy=0;" parent="1" source="t2AcmH2n_HT6Ft2l21uT-7" target="eq9ACowOTim6wulsKato-18" edge="1">
          <mxGeometry relative="1" as="geometry" />
        </mxCell>
        <mxCell id="t2AcmH2n_HT6Ft2l21uT-7" value="高级特性" style="rounded=1;whiteSpace=wrap;html=1;fillColor=#d5e8d4;strokeColor=#82b366;fontStyle=1" parent="1" vertex="1">
          <mxGeometry x="105" y="3510" width="220" height="80" as="geometry" />
        </mxCell>
        <mxCell id="nR0HkuhDGCpSzbCuDiu6-44" style="edgeStyle=orthogonalEdgeStyle;rounded=0;orthogonalLoop=1;jettySize=auto;html=1;entryX=0;entryY=0.5;entryDx=0;entryDy=0;strokeColor=#DDA15E;fontColor=#FEFAE0;fillColor=#BC6C25;" parent="1" source="t2AcmH2n_HT6Ft2l21uT-56" target="nR0HkuhDGCpSzbCuDiu6-40" edge="1">
          <mxGeometry relative="1" as="geometry">
            <Array as="points">
              <mxPoint x="363" y="2500" />
              <mxPoint x="363" y="2385" />
            </Array>
          </mxGeometry>
        </mxCell>
        <mxCell id="nR0HkuhDGCpSzbCuDiu6-47" style="rounded=0;orthogonalLoop=1;jettySize=auto;html=1;strokeColor=#DDA15E;fontColor=#FEFAE0;fillColor=#BC6C25;entryX=0;entryY=0.5;entryDx=0;entryDy=0;exitX=1;exitY=0.5;exitDx=0;exitDy=0;edgeStyle=orthogonalEdgeStyle;" parent="1" source="t2AcmH2n_HT6Ft2l21uT-56" target="nR0HkuhDGCpSzbCuDiu6-41" edge="1">
          <mxGeometry relative="1" as="geometry">
            <Array as="points">
              <mxPoint x="360" y="2500" />
              <mxPoint x="360" y="2615" />
            </Array>
          </mxGeometry>
        </mxCell>
        <mxCell id="t2AcmH2n_HT6Ft2l21uT-56" value="事务" style="rounded=1;whiteSpace=wrap;html=1;fillColor=#d5e8d4;strokeColor=#82b366;fontStyle=1" parent="1" vertex="1">
          <mxGeometry x="105" y="2460" width="220" height="80" as="geometry" />
        </mxCell>
        <mxCell id="rXUWPWZFfcHT6W9mrPYL-104" style="edgeStyle=orthogonalEdgeStyle;rounded=0;orthogonalLoop=1;jettySize=auto;html=1;entryX=0;entryY=0.5;entryDx=0;entryDy=0;" parent="1" source="rXUWPWZFfcHT6W9mrPYL-98" target="rXUWPWZFfcHT6W9mrPYL-99" edge="1">
          <mxGeometry relative="1" as="geometry" />
        </mxCell>
        <mxCell id="rXUWPWZFfcHT6W9mrPYL-105" style="edgeStyle=orthogonalEdgeStyle;rounded=0;orthogonalLoop=1;jettySize=auto;html=1;entryX=0;entryY=0.5;entryDx=0;entryDy=0;" parent="1" source="rXUWPWZFfcHT6W9mrPYL-98" target="rXUWPWZFfcHT6W9mrPYL-100" edge="1">
          <mxGeometry relative="1" as="geometry" />
        </mxCell>
        <mxCell id="rXUWPWZFfcHT6W9mrPYL-106" style="edgeStyle=orthogonalEdgeStyle;rounded=0;orthogonalLoop=1;jettySize=auto;html=1;entryX=0;entryY=0.5;entryDx=0;entryDy=0;" parent="1" source="rXUWPWZFfcHT6W9mrPYL-98" target="rXUWPWZFfcHT6W9mrPYL-101" edge="1">
          <mxGeometry relative="1" as="geometry" />
        </mxCell>
        <mxCell id="rXUWPWZFfcHT6W9mrPYL-107" style="edgeStyle=orthogonalEdgeStyle;rounded=0;orthogonalLoop=1;jettySize=auto;html=1;entryX=0;entryY=0.5;entryDx=0;entryDy=0;" parent="1" source="rXUWPWZFfcHT6W9mrPYL-98" target="rXUWPWZFfcHT6W9mrPYL-102" edge="1">
          <mxGeometry relative="1" as="geometry" />
        </mxCell>
        <mxCell id="rXUWPWZFfcHT6W9mrPYL-115" style="edgeStyle=orthogonalEdgeStyle;rounded=0;orthogonalLoop=1;jettySize=auto;html=1;entryX=0;entryY=0.5;entryDx=0;entryDy=0;" parent="1" source="rXUWPWZFfcHT6W9mrPYL-98" target="rXUWPWZFfcHT6W9mrPYL-112" edge="1">
          <mxGeometry relative="1" as="geometry" />
        </mxCell>
        <mxCell id="rXUWPWZFfcHT6W9mrPYL-98" value="生命周期" style="rounded=1;whiteSpace=wrap;html=1;fillColor=#d5e8d4;strokeColor=#82b366;fontStyle=1" parent="1" vertex="1">
          <mxGeometry x="400" y="1170" width="120" height="50" as="geometry" />
        </mxCell>
        <mxCell id="rXUWPWZFfcHT6W9mrPYL-109" style="edgeStyle=orthogonalEdgeStyle;rounded=0;orthogonalLoop=1;jettySize=auto;html=1;entryX=0.5;entryY=0;entryDx=0;entryDy=0;" parent="1" source="rXUWPWZFfcHT6W9mrPYL-99" target="rXUWPWZFfcHT6W9mrPYL-100" edge="1">
          <mxGeometry relative="1" as="geometry" />
        </mxCell>
        <mxCell id="rXUWPWZFfcHT6W9mrPYL-99" value="注册阶段" style="rounded=1;whiteSpace=wrap;html=1;fillColor=#d5e8d4;strokeColor=#82b366;fontStyle=1" parent="1" vertex="1">
          <mxGeometry x="565" y="1050" width="120" height="40" as="geometry" />
        </mxCell>
        <mxCell id="rXUWPWZFfcHT6W9mrPYL-113" style="edgeStyle=orthogonalEdgeStyle;rounded=0;orthogonalLoop=1;jettySize=auto;html=1;entryX=0.5;entryY=0;entryDx=0;entryDy=0;" parent="1" source="rXUWPWZFfcHT6W9mrPYL-100" target="rXUWPWZFfcHT6W9mrPYL-112" edge="1">
          <mxGeometry relative="1" as="geometry" />
        </mxCell>
        <mxCell id="rXUWPWZFfcHT6W9mrPYL-100" value="实例化阶段" style="rounded=1;whiteSpace=wrap;html=1;fillColor=#d5e8d4;strokeColor=#82b366;fontStyle=1" parent="1" vertex="1">
          <mxGeometry x="565" y="1120" width="120" height="40" as="geometry" />
        </mxCell>
        <mxCell id="rXUWPWZFfcHT6W9mrPYL-111" style="edgeStyle=orthogonalEdgeStyle;rounded=0;orthogonalLoop=1;jettySize=auto;html=1;entryX=0.5;entryY=0;entryDx=0;entryDy=0;" parent="1" source="rXUWPWZFfcHT6W9mrPYL-101" target="rXUWPWZFfcHT6W9mrPYL-102" edge="1">
          <mxGeometry relative="1" as="geometry" />
        </mxCell>
        <mxCell id="rXUWPWZFfcHT6W9mrPYL-101" value="初始化阶段" style="rounded=1;whiteSpace=wrap;html=1;fillColor=#d5e8d4;strokeColor=#82b366;fontStyle=1" parent="1" vertex="1">
          <mxGeometry x="565" y="1245" width="120" height="40" as="geometry" />
        </mxCell>
        <mxCell id="rXUWPWZFfcHT6W9mrPYL-102" value="销毁阶段" style="rounded=1;whiteSpace=wrap;html=1;fillColor=#d5e8d4;strokeColor=#82b366;fontStyle=1" parent="1" vertex="1">
          <mxGeometry x="565" y="1315" width="120" height="40" as="geometry" />
        </mxCell>
        <mxCell id="rXUWPWZFfcHT6W9mrPYL-114" style="edgeStyle=orthogonalEdgeStyle;rounded=0;orthogonalLoop=1;jettySize=auto;html=1;entryX=0.5;entryY=0;entryDx=0;entryDy=0;" parent="1" source="rXUWPWZFfcHT6W9mrPYL-112" target="rXUWPWZFfcHT6W9mrPYL-101" edge="1">
          <mxGeometry relative="1" as="geometry" />
        </mxCell>
        <mxCell id="rXUWPWZFfcHT6W9mrPYL-112" value="属性填充" style="rounded=1;whiteSpace=wrap;html=1;fillColor=#d5e8d4;strokeColor=#82b366;fontStyle=1" parent="1" vertex="1">
          <mxGeometry x="565" y="1180" width="120" height="40" as="geometry" />
        </mxCell>
        <mxCell id="rXUWPWZFfcHT6W9mrPYL-125" style="edgeStyle=orthogonalEdgeStyle;rounded=0;orthogonalLoop=1;jettySize=auto;html=1;entryX=0;entryY=0.5;entryDx=0;entryDy=0;" parent="1" source="rXUWPWZFfcHT6W9mrPYL-116" target="rXUWPWZFfcHT6W9mrPYL-118" edge="1">
          <mxGeometry relative="1" as="geometry" />
        </mxCell>
        <mxCell id="rXUWPWZFfcHT6W9mrPYL-126" style="edgeStyle=orthogonalEdgeStyle;rounded=0;orthogonalLoop=1;jettySize=auto;html=1;entryX=0;entryY=0.5;entryDx=0;entryDy=0;" parent="1" source="rXUWPWZFfcHT6W9mrPYL-116" target="rXUWPWZFfcHT6W9mrPYL-119" edge="1">
          <mxGeometry relative="1" as="geometry" />
        </mxCell>
        <mxCell id="rXUWPWZFfcHT6W9mrPYL-127" style="edgeStyle=orthogonalEdgeStyle;rounded=0;orthogonalLoop=1;jettySize=auto;html=1;entryX=0;entryY=0.5;entryDx=0;entryDy=0;" parent="1" source="rXUWPWZFfcHT6W9mrPYL-116" target="rXUWPWZFfcHT6W9mrPYL-121" edge="1">
          <mxGeometry relative="1" as="geometry" />
        </mxCell>
        <mxCell id="rXUWPWZFfcHT6W9mrPYL-128" style="edgeStyle=orthogonalEdgeStyle;rounded=0;orthogonalLoop=1;jettySize=auto;html=1;entryX=0;entryY=0.5;entryDx=0;entryDy=0;" parent="1" source="rXUWPWZFfcHT6W9mrPYL-116" target="rXUWPWZFfcHT6W9mrPYL-122" edge="1">
          <mxGeometry relative="1" as="geometry" />
        </mxCell>
        <mxCell id="rXUWPWZFfcHT6W9mrPYL-129" style="edgeStyle=orthogonalEdgeStyle;rounded=0;orthogonalLoop=1;jettySize=auto;html=1;entryX=0;entryY=0.5;entryDx=0;entryDy=0;" parent="1" source="rXUWPWZFfcHT6W9mrPYL-116" target="rXUWPWZFfcHT6W9mrPYL-123" edge="1">
          <mxGeometry relative="1" as="geometry" />
        </mxCell>
        <mxCell id="rXUWPWZFfcHT6W9mrPYL-130" style="edgeStyle=orthogonalEdgeStyle;rounded=0;orthogonalLoop=1;jettySize=auto;html=1;entryX=0;entryY=0.5;entryDx=0;entryDy=0;" parent="1" source="rXUWPWZFfcHT6W9mrPYL-116" target="rXUWPWZFfcHT6W9mrPYL-124" edge="1">
          <mxGeometry relative="1" as="geometry" />
        </mxCell>
        <mxCell id="rXUWPWZFfcHT6W9mrPYL-116" value="作用域" style="rounded=1;whiteSpace=wrap;html=1;fillColor=#d5e8d4;strokeColor=#82b366;fontStyle=1" parent="1" vertex="1">
          <mxGeometry x="400" y="1600" width="120" height="50" as="geometry" />
        </mxCell>
        <mxCell id="rXUWPWZFfcHT6W9mrPYL-118" value="singleton" style="rounded=1;whiteSpace=wrap;html=1;fillColor=#d5e8d4;strokeColor=#82b366;fontStyle=1" parent="1" vertex="1">
          <mxGeometry x="560" y="1400" width="120" height="50" as="geometry" />
        </mxCell>
        <mxCell id="rXUWPWZFfcHT6W9mrPYL-119" value="prototype" style="rounded=1;whiteSpace=wrap;html=1;fillColor=#d5e8d4;strokeColor=#82b366;fontStyle=1" parent="1" vertex="1">
          <mxGeometry x="560" y="1480" width="120" height="50" as="geometry" />
        </mxCell>
        <mxCell id="rXUWPWZFfcHT6W9mrPYL-120" value="Default" style="text;strokeColor=none;align=center;fillColor=none;html=1;verticalAlign=middle;whiteSpace=wrap;rounded=0;" parent="1" vertex="1">
          <mxGeometry x="590" y="1440" width="60" height="30" as="geometry" />
        </mxCell>
        <mxCell id="rXUWPWZFfcHT6W9mrPYL-121" value="request" style="rounded=1;whiteSpace=wrap;html=1;fillColor=#d5e8d4;strokeColor=#82b366;fontStyle=1" parent="1" vertex="1">
          <mxGeometry x="560" y="1560" width="120" height="50" as="geometry" />
        </mxCell>
        <mxCell id="rXUWPWZFfcHT6W9mrPYL-122" value="session" style="rounded=1;whiteSpace=wrap;html=1;fillColor=#d5e8d4;strokeColor=#82b366;fontStyle=1" parent="1" vertex="1">
          <mxGeometry x="560" y="1630" width="120" height="50" as="geometry" />
        </mxCell>
        <mxCell id="rXUWPWZFfcHT6W9mrPYL-123" value="application" style="rounded=1;whiteSpace=wrap;html=1;fillColor=#d5e8d4;strokeColor=#82b366;fontStyle=1" parent="1" vertex="1">
          <mxGeometry x="560" y="1700" width="120" height="50" as="geometry" />
        </mxCell>
        <mxCell id="rXUWPWZFfcHT6W9mrPYL-124" value="websocket" style="rounded=1;whiteSpace=wrap;html=1;fillColor=#d5e8d4;strokeColor=#82b366;fontStyle=1" parent="1" vertex="1">
          <mxGeometry x="560" y="1770" width="120" height="50" as="geometry" />
        </mxCell>
        <mxCell id="rXUWPWZFfcHT6W9mrPYL-131" value="每次从 IOC 容器获取的 Bean 都是一个新的实例" style="text;strokeColor=none;align=center;fillColor=none;html=1;verticalAlign=middle;whiteSpace=wrap;rounded=0;" parent="1" vertex="1">
          <mxGeometry x="680" y="1480" width="160" height="60" as="geometry" />
        </mxCell>
        <mxCell id="nR0HkuhDGCpSzbCuDiu6-7" style="edgeStyle=orthogonalEdgeStyle;rounded=0;orthogonalLoop=1;jettySize=auto;html=1;entryX=0;entryY=0.5;entryDx=0;entryDy=0;strokeColor=#DDA15E;fontColor=#FEFAE0;fillColor=#BC6C25;" parent="1" source="rXUWPWZFfcHT6W9mrPYL-132" target="nR0HkuhDGCpSzbCuDiu6-6" edge="1">
          <mxGeometry relative="1" as="geometry" />
        </mxCell>
        <mxCell id="rXUWPWZFfcHT6W9mrPYL-132" value="自动装配" style="rounded=1;whiteSpace=wrap;html=1;fillColor=#d5e8d4;strokeColor=#82b366;fontStyle=1" parent="1" vertex="1">
          <mxGeometry x="400" y="1355" width="120" height="50" as="geometry" />
        </mxCell>
        <mxCell id="rXUWPWZFfcHT6W9mrPYL-134" value="根据Class对象，通过反射获取所有的Field和Method信息" style="rounded=1;whiteSpace=wrap;html=1;fillColor=#d5e8d4;strokeColor=#82b366;fontStyle=1" parent="1" vertex="1">
          <mxGeometry x="920" y="1180" width="200" height="50" as="geometry" />
        </mxCell>
        <mxCell id="nR0HkuhDGCpSzbCuDiu6-1" value="通反射获取Field和Method的注解信息，并根据注解类型，判断是否需要自动装配" style="rounded=1;whiteSpace=wrap;html=1;fillColor=#d5e8d4;strokeColor=#82b366;fontStyle=1" parent="1" vertex="1">
          <mxGeometry x="900" y="1250" width="230" height="50" as="geometry" />
        </mxCell>
        <mxCell id="nR0HkuhDGCpSzbCuDiu6-2" value="将需要自动装配的元素，封装成AutowiredFieldElement或AutowiredMethodElement对象" style="rounded=1;whiteSpace=wrap;html=1;fillColor=#d5e8d4;strokeColor=#82b366;fontStyle=1" parent="1" vertex="1">
          <mxGeometry x="900" y="1325" width="230" height="50" as="geometry" />
        </mxCell>
        <mxCell id="nR0HkuhDGCpSzbCuDiu6-3" value="调用AutowiredFieldElement或AutowiredMethodElement的inject方法" style="rounded=1;whiteSpace=wrap;html=1;fillColor=#d5e8d4;strokeColor=#82b366;fontStyle=1" parent="1" vertex="1">
          <mxGeometry x="900" y="1390" width="230" height="50" as="geometry" />
        </mxCell>
        <mxCell id="nR0HkuhDGCpSzbCuDiu6-4" value="通过调用容器的getBean()方法找到需要注入的源数据Bean" style="rounded=1;whiteSpace=wrap;html=1;fillColor=#d5e8d4;strokeColor=#82b366;fontStyle=1" parent="1" vertex="1">
          <mxGeometry x="900" y="1460" width="230" height="50" as="geometry" />
        </mxCell>
        <mxCell id="nR0HkuhDGCpSzbCuDiu6-5" value="&lt;div&gt;通过反射将找到的源数据Bean注入到目标Bean中&lt;/div&gt;" style="rounded=1;whiteSpace=wrap;html=1;fillColor=#d5e8d4;strokeColor=#82b366;fontStyle=1" parent="1" vertex="1">
          <mxGeometry x="900" y="1530" width="230" height="50" as="geometry" />
        </mxCell>
        <mxCell id="nR0HkuhDGCpSzbCuDiu6-10" value="控制反转（IoC）容器" style="rounded=1;whiteSpace=wrap;html=1;fillColor=#d5e8d4;strokeColor=#82b366;fontStyle=1" parent="1" vertex="1">
          <mxGeometry x="410" y="1870" width="130" height="30" as="geometry" />
        </mxCell>
        <mxCell id="nR0HkuhDGCpSzbCuDiu6-11" value="JNDI" style="rounded=1;whiteSpace=wrap;html=1;fillColor=#d5e8d4;strokeColor=#82b366;fontStyle=1" parent="1" vertex="1">
          <mxGeometry x="410" y="1910" width="120" height="20" as="geometry" />
        </mxCell>
        <mxCell id="nR0HkuhDGCpSzbCuDiu6-13" value="定时任务" style="rounded=1;whiteSpace=wrap;html=1;fillColor=#d5e8d4;strokeColor=#82b366;fontStyle=1" parent="1" vertex="1">
          <mxGeometry x="410" y="1940" width="120" height="20" as="geometry" />
        </mxCell>
        <mxCell id="nR0HkuhDGCpSzbCuDiu6-14" value="事件机制" style="rounded=1;whiteSpace=wrap;html=1;fillColor=#d5e8d4;strokeColor=#82b366;fontStyle=1" parent="1" vertex="1">
          <mxGeometry x="410" y="1970" width="120" height="20" as="geometry" />
        </mxCell>
        <mxCell id="nR0HkuhDGCpSzbCuDiu6-15" value="国际化" style="rounded=1;whiteSpace=wrap;html=1;fillColor=#d5e8d4;strokeColor=#82b366;fontStyle=1" parent="1" vertex="1">
          <mxGeometry x="410" y="2000" width="120" height="20" as="geometry" />
        </mxCell>
        <mxCell id="nR0HkuhDGCpSzbCuDiu6-16" value="事务管理" style="rounded=1;whiteSpace=wrap;html=1;fillColor=#d5e8d4;strokeColor=#82b366;fontStyle=1" parent="1" vertex="1">
          <mxGeometry x="410" y="2030" width="120" height="30" as="geometry" />
        </mxCell>
        <mxCell id="nR0HkuhDGCpSzbCuDiu6-23" value="环境抽象和Profile" style="rounded=1;whiteSpace=wrap;html=1;fillColor=#d5e8d4;strokeColor=#82b366;fontStyle=1" parent="1" vertex="1">
          <mxGeometry x="410" y="2070" width="120" height="30" as="geometry" />
        </mxCell>
        <mxCell id="nR0HkuhDGCpSzbCuDiu6-24" value="资源管理" style="rounded=1;whiteSpace=wrap;html=1;fillColor=#d5e8d4;strokeColor=#82b366;fontStyle=1" parent="1" vertex="1">
          <mxGeometry x="410" y="2110" width="120" height="30" as="geometry" />
        </mxCell>
        <mxCell id="nR0HkuhDGCpSzbCuDiu6-27" value="依赖注入" style="rounded=1;whiteSpace=wrap;html=1;fillColor=#d5e8d4;strokeColor=#82b366;fontStyle=1" parent="1" vertex="1">
          <mxGeometry x="400" y="2180" width="130" height="30" as="geometry" />
        </mxCell>
        <mxCell id="nR0HkuhDGCpSzbCuDiu6-28" value="控制反转" style="rounded=1;whiteSpace=wrap;html=1;fillColor=#d5e8d4;strokeColor=#82b366;fontStyle=1" parent="1" vertex="1">
          <mxGeometry x="400" y="2220" width="120" height="20" as="geometry" />
        </mxCell>
        <mxCell id="nR0HkuhDGCpSzbCuDiu6-29" value="资源管理" style="rounded=1;whiteSpace=wrap;html=1;fillColor=#d5e8d4;strokeColor=#82b366;fontStyle=1" parent="1" vertex="1">
          <mxGeometry x="400" y="2250" width="120" height="20" as="geometry" />
        </mxCell>
        <mxCell id="nR0HkuhDGCpSzbCuDiu6-30" value="事件处理" style="rounded=1;whiteSpace=wrap;html=1;fillColor=#d5e8d4;strokeColor=#82b366;fontStyle=1" parent="1" vertex="1">
          <mxGeometry x="400" y="2280" width="120" height="20" as="geometry" />
        </mxCell>
        <mxCell id="nR0HkuhDGCpSzbCuDiu6-31" value="Spring表达式语" style="rounded=1;whiteSpace=wrap;html=1;fillColor=#d5e8d4;strokeColor=#82b366;fontStyle=1" parent="1" vertex="1">
          <mxGeometry x="400" y="2310" width="120" height="20" as="geometry" />
        </mxCell>
        <mxCell id="nR0HkuhDGCpSzbCuDiu6-45" style="edgeStyle=orthogonalEdgeStyle;rounded=0;orthogonalLoop=1;jettySize=auto;html=1;entryX=0;entryY=0.5;entryDx=0;entryDy=0;strokeColor=#DDA15E;fontColor=#FEFAE0;fillColor=#BC6C25;" parent="1" source="nR0HkuhDGCpSzbCuDiu6-40" target="nR0HkuhDGCpSzbCuDiu6-42" edge="1">
          <mxGeometry relative="1" as="geometry" />
        </mxCell>
        <mxCell id="nR0HkuhDGCpSzbCuDiu6-46" style="edgeStyle=orthogonalEdgeStyle;rounded=0;orthogonalLoop=1;jettySize=auto;html=1;entryX=0;entryY=0.5;entryDx=0;entryDy=0;strokeColor=#DDA15E;fontColor=#FEFAE0;fillColor=#BC6C25;" parent="1" source="nR0HkuhDGCpSzbCuDiu6-40" target="nR0HkuhDGCpSzbCuDiu6-43" edge="1">
          <mxGeometry relative="1" as="geometry" />
        </mxCell>
        <mxCell id="nR0HkuhDGCpSzbCuDiu6-40" value="事务管理的方式" style="rounded=1;whiteSpace=wrap;html=1;fillColor=#d5e8d4;strokeColor=#82b366;fontStyle=1" parent="1" vertex="1">
          <mxGeometry x="400" y="2360" width="180" height="50" as="geometry" />
        </mxCell>
        <mxCell id="nR0HkuhDGCpSzbCuDiu6-57" style="edgeStyle=orthogonalEdgeStyle;rounded=0;orthogonalLoop=1;jettySize=auto;html=1;entryX=0;entryY=0.5;entryDx=0;entryDy=0;strokeColor=#DDA15E;fontColor=#FEFAE0;fillColor=#BC6C25;" parent="1" source="nR0HkuhDGCpSzbCuDiu6-41" target="nR0HkuhDGCpSzbCuDiu6-48" edge="1">
          <mxGeometry relative="1" as="geometry" />
        </mxCell>
        <mxCell id="nR0HkuhDGCpSzbCuDiu6-58" style="edgeStyle=orthogonalEdgeStyle;rounded=0;orthogonalLoop=1;jettySize=auto;html=1;entryX=0;entryY=0.5;entryDx=0;entryDy=0;strokeColor=#DDA15E;fontColor=#FEFAE0;fillColor=#BC6C25;" parent="1" source="nR0HkuhDGCpSzbCuDiu6-41" target="nR0HkuhDGCpSzbCuDiu6-49" edge="1">
          <mxGeometry relative="1" as="geometry" />
        </mxCell>
        <mxCell id="nR0HkuhDGCpSzbCuDiu6-59" style="edgeStyle=orthogonalEdgeStyle;rounded=0;orthogonalLoop=1;jettySize=auto;html=1;entryX=0;entryY=0.5;entryDx=0;entryDy=0;strokeColor=#DDA15E;fontColor=#FEFAE0;fillColor=#BC6C25;" parent="1" source="nR0HkuhDGCpSzbCuDiu6-41" target="nR0HkuhDGCpSzbCuDiu6-50" edge="1">
          <mxGeometry relative="1" as="geometry" />
        </mxCell>
        <mxCell id="nR0HkuhDGCpSzbCuDiu6-60" style="edgeStyle=orthogonalEdgeStyle;rounded=0;orthogonalLoop=1;jettySize=auto;html=1;entryX=0;entryY=0.5;entryDx=0;entryDy=0;strokeColor=#DDA15E;fontColor=#FEFAE0;fillColor=#BC6C25;" parent="1" source="nR0HkuhDGCpSzbCuDiu6-41" target="nR0HkuhDGCpSzbCuDiu6-51" edge="1">
          <mxGeometry relative="1" as="geometry" />
        </mxCell>
        <mxCell id="nR0HkuhDGCpSzbCuDiu6-61" style="edgeStyle=orthogonalEdgeStyle;rounded=0;orthogonalLoop=1;jettySize=auto;html=1;entryX=0;entryY=0.5;entryDx=0;entryDy=0;strokeColor=#DDA15E;fontColor=#FEFAE0;fillColor=#BC6C25;" parent="1" source="nR0HkuhDGCpSzbCuDiu6-41" target="nR0HkuhDGCpSzbCuDiu6-53" edge="1">
          <mxGeometry relative="1" as="geometry" />
        </mxCell>
        <mxCell id="nR0HkuhDGCpSzbCuDiu6-62" style="edgeStyle=orthogonalEdgeStyle;rounded=0;orthogonalLoop=1;jettySize=auto;html=1;entryX=0;entryY=0.5;entryDx=0;entryDy=0;strokeColor=#DDA15E;fontColor=#FEFAE0;fillColor=#BC6C25;" parent="1" source="nR0HkuhDGCpSzbCuDiu6-41" target="nR0HkuhDGCpSzbCuDiu6-54" edge="1">
          <mxGeometry relative="1" as="geometry" />
        </mxCell>
        <mxCell id="nR0HkuhDGCpSzbCuDiu6-63" style="edgeStyle=orthogonalEdgeStyle;rounded=0;orthogonalLoop=1;jettySize=auto;html=1;entryX=0;entryY=0.5;entryDx=0;entryDy=0;strokeColor=#DDA15E;fontColor=#FEFAE0;fillColor=#BC6C25;" parent="1" source="nR0HkuhDGCpSzbCuDiu6-41" target="nR0HkuhDGCpSzbCuDiu6-56" edge="1">
          <mxGeometry relative="1" as="geometry" />
        </mxCell>
        <mxCell id="nR0HkuhDGCpSzbCuDiu6-41" value="事务不生效" style="rounded=1;whiteSpace=wrap;html=1;fillColor=#d5e8d4;strokeColor=#82b366;fontStyle=1" parent="1" vertex="1">
          <mxGeometry x="400" y="2590" width="180" height="50" as="geometry" />
        </mxCell>
        <mxCell id="nR0HkuhDGCpSzbCuDiu6-42" value="声明式&lt;div&gt;@Transactional&lt;/div&gt;" style="rounded=1;whiteSpace=wrap;html=1;fillColor=#d5e8d4;strokeColor=#82b366;fontStyle=1" parent="1" vertex="1">
          <mxGeometry x="680" y="2320" width="160" height="50" as="geometry" />
        </mxCell>
        <mxCell id="nR0HkuhDGCpSzbCuDiu6-43" value="&amp;nbsp;编程式&lt;div&gt;TransactionTemplate&lt;/div&gt;" style="rounded=1;whiteSpace=wrap;html=1;fillColor=#d5e8d4;strokeColor=#82b366;fontStyle=1" parent="1" vertex="1">
          <mxGeometry x="680" y="2390" width="160" height="50" as="geometry" />
        </mxCell>
        <mxCell id="nR0HkuhDGCpSzbCuDiu6-48" value="数据库不支持事务" style="rounded=1;whiteSpace=wrap;html=1;fillColor=#d5e8d4;strokeColor=#82b366;fontStyle=1" parent="1" vertex="1">
          <mxGeometry x="680" y="2460" width="180" height="30" as="geometry" />
        </mxCell>
        <mxCell id="nR0HkuhDGCpSzbCuDiu6-49" value="事务方法未被Spring管理" style="rounded=1;whiteSpace=wrap;html=1;fillColor=#d5e8d4;strokeColor=#82b366;fontStyle=1" parent="1" vertex="1">
          <mxGeometry x="680" y="2500" width="180" height="30" as="geometry" />
        </mxCell>
        <mxCell id="nR0HkuhDGCpSzbCuDiu6-50" value="事务方法未被public修饰" style="rounded=1;whiteSpace=wrap;html=1;fillColor=#f8cecc;strokeColor=#b85450;fontStyle=1" parent="1" vertex="1">
          <mxGeometry x="680" y="2540" width="180" height="30" as="geometry" />
        </mxCell>
        <mxCell id="nR0HkuhDGCpSzbCuDiu6-51" value="业务层代码的方法上加了个 synchronized 关键字" style="rounded=1;whiteSpace=wrap;html=1;fillColor=#f8cecc;strokeColor=#b85450;fontStyle=1" parent="1" vertex="1">
          <mxGeometry x="680" y="2580" width="180" height="30" as="geometry" />
        </mxCell>
        <mxCell id="nR0HkuhDGCpSzbCuDiu6-53" value="同一类中方法调用" style="rounded=1;whiteSpace=wrap;html=1;fillColor=#f8cecc;strokeColor=#b85450;fontStyle=1" parent="1" vertex="1">
          <mxGeometry x="680" y="2620" width="180" height="30" as="geometry" />
        </mxCell>
        <mxCell id="nR0HkuhDGCpSzbCuDiu6-54" value="未配置事务管理器" style="rounded=1;whiteSpace=wrap;html=1;fillColor=#d5e8d4;strokeColor=#82b366;fontStyle=1" parent="1" vertex="1">
          <mxGeometry x="680" y="2660" width="180" height="30" as="geometry" />
        </mxCell>
        <mxCell id="nR0HkuhDGCpSzbCuDiu6-55" value="方法的事务传播类型不支持事务" style="rounded=1;whiteSpace=wrap;html=1;fillColor=#d5e8d4;strokeColor=#82b366;fontStyle=1" parent="1" vertex="1">
          <mxGeometry x="680" y="2700" width="180" height="30" as="geometry" />
        </mxCell>
        <mxCell id="nR0HkuhDGCpSzbCuDiu6-56" value="不正确的捕获异常" style="rounded=1;whiteSpace=wrap;html=1;fillColor=#f8cecc;strokeColor=#b85450;fontStyle=1" parent="1" vertex="1">
          <mxGeometry x="680" y="2740" width="180" height="30" as="geometry" />
        </mxCell>
        <mxCell id="nR0HkuhDGCpSzbCuDiu6-64" value="如果在类内部调用类内部的事务方法，这个调用事务方法的过程并不是通过代理对象来调用的，而是&lt;font style=&quot;color: rgb(255, 0, 0);&quot;&gt;直接通过this对象来调用方法，绕过的代理对象&lt;/font&gt;，肯定就是没有代理逻辑了。" style="shape=callout;whiteSpace=wrap;html=1;perimeter=calloutPerimeter;flipH=0;direction=south;dashed=1;dashPattern=1 4;" parent="1" vertex="1">
          <mxGeometry x="850" y="2620" width="500" height="35" as="geometry" />
        </mxCell>
        <mxCell id="nR0HkuhDGCpSzbCuDiu6-65" value="Spring Boot会自动配置PlatformTransactionManager" style="shape=callout;whiteSpace=wrap;html=1;perimeter=calloutPerimeter;flipH=0;direction=south;dashed=1;dashPattern=1 4;" parent="1" vertex="1">
          <mxGeometry x="860" y="2660" width="380" height="30" as="geometry" />
        </mxCell>
        <mxCell id="nR0HkuhDGCpSzbCuDiu6-66" value="Spring中对于默认回滚的事务异常类型为&lt;b&gt;&lt;font style=&quot;color: rgb(255, 0, 0);&quot;&gt;RuntimeException&lt;/font&gt;&lt;/b&gt;，rollbackFor属性可以指定 Throwable 异常类" style="shape=callout;whiteSpace=wrap;html=1;perimeter=calloutPerimeter;flipH=0;direction=south;dashed=1;dashPattern=1 4;" parent="1" vertex="1">
          <mxGeometry x="860" y="2725" width="440" height="60" as="geometry" />
        </mxCell>
        <mxCell id="nR0HkuhDGCpSzbCuDiu6-67" value="propagation参数，默认为REQUIRED" style="shape=callout;whiteSpace=wrap;html=1;perimeter=calloutPerimeter;flipH=1;direction=south;dashed=1;dashPattern=1 4;flipV=0;" parent="1" vertex="1">
          <mxGeometry x="510" y="2690" width="170" height="50" as="geometry" />
        </mxCell>
        <mxCell id="nR0HkuhDGCpSzbCuDiu6-68" value="Propagation.REQUIRED" style="rounded=1;whiteSpace=wrap;html=1;fillColor=#d5e8d4;strokeColor=#82b366;fontStyle=1" parent="1" vertex="1">
          <mxGeometry x="680" y="2820" width="140" height="30" as="geometry" />
        </mxCell>
        <mxCell id="nR0HkuhDGCpSzbCuDiu6-70" value="Propagation.PROPAGATION_REQUIRES_NEW" style="rounded=1;whiteSpace=wrap;html=1;fillColor=#d5e8d4;strokeColor=#82b366;fontStyle=1" parent="1" vertex="1">
          <mxGeometry x="680" y="2870" width="270" height="30" as="geometry" />
        </mxCell>
        <mxCell id="W9EEwU54PeOxV-cgSjMx-1" value="Propagation.&amp;nbsp;PROPAGATION_SUPPORTS" style="rounded=1;whiteSpace=wrap;html=1;fillColor=#d5e8d4;strokeColor=#82b366;fontStyle=1" parent="1" vertex="1">
          <mxGeometry x="680" y="2920" width="240" height="30" as="geometry" />
        </mxCell>
        <mxCell id="W9EEwU54PeOxV-cgSjMx-2" value="Propagation.PROPAGATION_NOT_SUPPORTED" style="rounded=1;whiteSpace=wrap;html=1;fillColor=#d5e8d4;strokeColor=#82b366;fontStyle=1" parent="1" vertex="1">
          <mxGeometry x="680" y="2970" width="280" height="30" as="geometry" />
        </mxCell>
        <mxCell id="W9EEwU54PeOxV-cgSjMx-9" style="edgeStyle=orthogonalEdgeStyle;rounded=0;orthogonalLoop=1;jettySize=auto;html=1;entryX=0;entryY=0.5;entryDx=0;entryDy=0;" parent="1" source="W9EEwU54PeOxV-cgSjMx-3" target="nR0HkuhDGCpSzbCuDiu6-68" edge="1">
          <mxGeometry relative="1" as="geometry" />
        </mxCell>
        <mxCell id="W9EEwU54PeOxV-cgSjMx-10" style="edgeStyle=orthogonalEdgeStyle;rounded=0;orthogonalLoop=1;jettySize=auto;html=1;entryX=0;entryY=0.5;entryDx=0;entryDy=0;" parent="1" source="W9EEwU54PeOxV-cgSjMx-3" target="nR0HkuhDGCpSzbCuDiu6-70" edge="1">
          <mxGeometry relative="1" as="geometry" />
        </mxCell>
        <mxCell id="W9EEwU54PeOxV-cgSjMx-11" style="edgeStyle=orthogonalEdgeStyle;rounded=0;orthogonalLoop=1;jettySize=auto;html=1;entryX=0;entryY=0.5;entryDx=0;entryDy=0;" parent="1" source="W9EEwU54PeOxV-cgSjMx-3" target="W9EEwU54PeOxV-cgSjMx-1" edge="1">
          <mxGeometry relative="1" as="geometry" />
        </mxCell>
        <mxCell id="W9EEwU54PeOxV-cgSjMx-12" style="edgeStyle=orthogonalEdgeStyle;rounded=0;orthogonalLoop=1;jettySize=auto;html=1;entryX=0;entryY=0.5;entryDx=0;entryDy=0;" parent="1" source="W9EEwU54PeOxV-cgSjMx-3" target="W9EEwU54PeOxV-cgSjMx-2" edge="1">
          <mxGeometry relative="1" as="geometry" />
        </mxCell>
        <mxCell id="W9EEwU54PeOxV-cgSjMx-13" style="edgeStyle=orthogonalEdgeStyle;rounded=0;orthogonalLoop=1;jettySize=auto;html=1;entryX=0;entryY=0.5;entryDx=0;entryDy=0;" parent="1" source="W9EEwU54PeOxV-cgSjMx-3" target="W9EEwU54PeOxV-cgSjMx-4" edge="1">
          <mxGeometry relative="1" as="geometry" />
        </mxCell>
        <mxCell id="W9EEwU54PeOxV-cgSjMx-14" style="edgeStyle=orthogonalEdgeStyle;rounded=0;orthogonalLoop=1;jettySize=auto;html=1;entryX=0;entryY=0.5;entryDx=0;entryDy=0;" parent="1" source="W9EEwU54PeOxV-cgSjMx-3" target="W9EEwU54PeOxV-cgSjMx-5" edge="1">
          <mxGeometry relative="1" as="geometry" />
        </mxCell>
        <mxCell id="W9EEwU54PeOxV-cgSjMx-15" style="edgeStyle=orthogonalEdgeStyle;rounded=0;orthogonalLoop=1;jettySize=auto;html=1;entryX=0;entryY=0.5;entryDx=0;entryDy=0;" parent="1" source="W9EEwU54PeOxV-cgSjMx-3" target="W9EEwU54PeOxV-cgSjMx-6" edge="1">
          <mxGeometry relative="1" as="geometry" />
        </mxCell>
        <mxCell id="W9EEwU54PeOxV-cgSjMx-3" value="事务传播行为" style="rounded=1;whiteSpace=wrap;html=1;fillColor=#d5e8d4;strokeColor=#82b366;fontStyle=1" parent="1" vertex="1">
          <mxGeometry x="400" y="2920" width="180" height="50" as="geometry" />
        </mxCell>
        <mxCell id="W9EEwU54PeOxV-cgSjMx-4" value="Propagation.&amp;nbsp;PROPAGATION_NEVER" style="rounded=1;whiteSpace=wrap;html=1;fillColor=#d5e8d4;strokeColor=#82b366;fontStyle=1" parent="1" vertex="1">
          <mxGeometry x="680" y="3020" width="220" height="30" as="geometry" />
        </mxCell>
        <mxCell id="W9EEwU54PeOxV-cgSjMx-5" value="Propagation.&amp;nbsp;PROPAGATION_MANDATORY" style="rounded=1;whiteSpace=wrap;html=1;fillColor=#d5e8d4;strokeColor=#82b366;fontStyle=1" parent="1" vertex="1">
          <mxGeometry x="680" y="3070" width="250" height="30" as="geometry" />
        </mxCell>
        <mxCell id="W9EEwU54PeOxV-cgSjMx-6" value="Propagation.&amp;nbsp;PROPAGATION_NESTED" style="rounded=1;whiteSpace=wrap;html=1;fillColor=#d5e8d4;strokeColor=#82b366;fontStyle=1" parent="1" vertex="1">
          <mxGeometry x="680" y="3120" width="230" height="30" as="geometry" />
        </mxCell>
        <mxCell id="W9EEwU54PeOxV-cgSjMx-8" style="rounded=0;orthogonalLoop=1;jettySize=auto;html=1;strokeColor=#DDA15E;fontColor=#FEFAE0;fillColor=#BC6C25;entryX=0;entryY=0.5;entryDx=0;entryDy=0;exitX=1;exitY=0.5;exitDx=0;exitDy=0;edgeStyle=orthogonalEdgeStyle;" parent="1" source="t2AcmH2n_HT6Ft2l21uT-56" target="W9EEwU54PeOxV-cgSjMx-3" edge="1">
          <mxGeometry relative="1" as="geometry">
            <Array as="points">
              <mxPoint x="360" y="2500" />
              <mxPoint x="360" y="2945" />
            </Array>
            <mxPoint x="350" y="2560" as="sourcePoint" />
            <mxPoint x="425" y="2675" as="targetPoint" />
          </mxGeometry>
        </mxCell>
        <mxCell id="W9EEwU54PeOxV-cgSjMx-16" value="如果当前存在事务，则加入该事务；如果当前没有事务，则创建一个新的事务。这是&lt;b&gt;默认值&lt;/b&gt;。" style="shape=callout;whiteSpace=wrap;html=1;perimeter=calloutPerimeter;flipH=0;direction=south;dashed=1;dashPattern=1 4;" parent="1" vertex="1">
          <mxGeometry x="835" y="2815" width="580" height="40" as="geometry" />
        </mxCell>
        <mxCell id="W9EEwU54PeOxV-cgSjMx-17" value="创建一个新的事务，如果当前存在事务，则把当前事务挂起。" style="shape=callout;whiteSpace=wrap;html=1;perimeter=calloutPerimeter;flipH=0;direction=south;dashed=1;dashPattern=1 4;" parent="1" vertex="1">
          <mxGeometry x="950" y="2865" width="580" height="40" as="geometry" />
        </mxCell>
        <mxCell id="W9EEwU54PeOxV-cgSjMx-18" value="如果当前存在事务，则加入该事务；如果当前没有事务，则以非事务的方式继续运行。" style="shape=callout;whiteSpace=wrap;html=1;perimeter=calloutPerimeter;flipH=0;direction=south;dashed=1;dashPattern=1 4;" parent="1" vertex="1">
          <mxGeometry x="940" y="2915" width="580" height="40" as="geometry" />
        </mxCell>
        <mxCell id="W9EEwU54PeOxV-cgSjMx-19" value="以非事务方式运行，如果当前存在事务，则把当前事务挂起。" style="shape=callout;whiteSpace=wrap;html=1;perimeter=calloutPerimeter;flipH=0;direction=south;dashed=1;dashPattern=1 4;" parent="1" vertex="1">
          <mxGeometry x="960" y="2965" width="580" height="40" as="geometry" />
        </mxCell>
        <mxCell id="W9EEwU54PeOxV-cgSjMx-20" value="以非事务方式运行，如果当前存在事务，则抛出异常。" style="shape=callout;whiteSpace=wrap;html=1;perimeter=calloutPerimeter;flipH=0;direction=south;dashed=1;dashPattern=1 4;" parent="1" vertex="1">
          <mxGeometry x="910" y="3015" width="580" height="40" as="geometry" />
        </mxCell>
        <mxCell id="W9EEwU54PeOxV-cgSjMx-21" value="如果当前存在事务，则加入该事务；如果当前没有事务，则抛出异常。" style="shape=callout;whiteSpace=wrap;html=1;perimeter=calloutPerimeter;flipH=0;direction=south;dashed=1;dashPattern=1 4;" parent="1" vertex="1">
          <mxGeometry x="930" y="3065" width="580" height="40" as="geometry" />
        </mxCell>
        <mxCell id="W9EEwU54PeOxV-cgSjMx-22" value="如果当前存在事务，则创建一个事务作为当前事务的嵌套事务来运行；如果当前没有事务，则该取值等价于TransactionDefinition.PROPAGATION_REQUIRED" style="shape=callout;whiteSpace=wrap;html=1;perimeter=calloutPerimeter;flipH=0;direction=south;dashed=1;dashPattern=1 4;" parent="1" vertex="1">
          <mxGeometry x="910" y="3115" width="580" height="40" as="geometry" />
        </mxCell>
        <mxCell id="W9EEwU54PeOxV-cgSjMx-23" value="根本原因是因为&lt;font style=&quot;color: rgb(255, 0, 0);&quot;&gt;事务的范围比锁的范围大&lt;/font&gt;，解决方法是在调用该 service 的地方加锁，保证锁的范围比事务的范围大即可" style="shape=callout;whiteSpace=wrap;html=1;perimeter=calloutPerimeter;flipH=0;direction=south;dashed=1;dashPattern=1 4;" parent="1" vertex="1">
          <mxGeometry x="860" y="2570" width="400" height="40" as="geometry" />
        </mxCell>
        <mxCell id="eq9ACowOTim6wulsKato-6" style="edgeStyle=orthogonalEdgeStyle;rounded=0;orthogonalLoop=1;jettySize=auto;html=1;entryX=0;entryY=0.5;entryDx=0;entryDy=0;" parent="1" source="eq9ACowOTim6wulsKato-1" target="eq9ACowOTim6wulsKato-2" edge="1">
          <mxGeometry relative="1" as="geometry" />
        </mxCell>
        <mxCell id="eq9ACowOTim6wulsKato-15" style="edgeStyle=orthogonalEdgeStyle;rounded=0;orthogonalLoop=1;jettySize=auto;html=1;entryX=0;entryY=0.5;entryDx=0;entryDy=0;" parent="1" source="eq9ACowOTim6wulsKato-1" target="eq9ACowOTim6wulsKato-3" edge="1">
          <mxGeometry relative="1" as="geometry" />
        </mxCell>
        <mxCell id="eq9ACowOTim6wulsKato-16" style="edgeStyle=orthogonalEdgeStyle;rounded=0;orthogonalLoop=1;jettySize=auto;html=1;entryX=0;entryY=0.5;entryDx=0;entryDy=0;" parent="1" source="eq9ACowOTim6wulsKato-1" target="eq9ACowOTim6wulsKato-4" edge="1">
          <mxGeometry relative="1" as="geometry" />
        </mxCell>
        <mxCell id="eq9ACowOTim6wulsKato-1" value="事件驱动模型" style="rounded=1;whiteSpace=wrap;html=1;fillColor=#d5e8d4;strokeColor=#82b366;fontStyle=1" parent="1" vertex="1">
          <mxGeometry x="400" y="3310" width="180" height="50" as="geometry" />
        </mxCell>
        <mxCell id="eq9ACowOTim6wulsKato-2" value="ApplicationEvent" style="rounded=1;whiteSpace=wrap;html=1;fillColor=#d5e8d4;strokeColor=#82b366;fontStyle=1" parent="1" vertex="1">
          <mxGeometry x="680" y="3190" width="180" height="50" as="geometry" />
        </mxCell>
        <mxCell id="eq9ACowOTim6wulsKato-3" value="ApplicationEventPublisher" style="rounded=1;whiteSpace=wrap;html=1;fillColor=#d5e8d4;strokeColor=#82b366;fontStyle=1" parent="1" vertex="1">
          <mxGeometry x="680" y="3255" width="180" height="50" as="geometry" />
        </mxCell>
        <mxCell id="eq9ACowOTim6wulsKato-13" style="edgeStyle=orthogonalEdgeStyle;rounded=0;orthogonalLoop=1;jettySize=auto;html=1;entryX=0;entryY=0.5;entryDx=0;entryDy=0;" parent="1" source="eq9ACowOTim6wulsKato-4" target="eq9ACowOTim6wulsKato-12" edge="1">
          <mxGeometry relative="1" as="geometry" />
        </mxCell>
        <mxCell id="eq9ACowOTim6wulsKato-4" value="&lt;span style=&quot;color: rgb(232, 62, 140); font-family: Consolas, Monaco, &amp;quot;Andale Mono&amp;quot;, &amp;quot;Ubuntu Mono&amp;quot;, monospace; font-size: 14px; font-weight: 400; text-align: left; background-color: rgb(246, 246, 246);&quot;&gt;@&lt;/span&gt;ApplicationListener" style="rounded=1;whiteSpace=wrap;html=1;fillColor=#d5e8d4;strokeColor=#82b366;fontStyle=1" parent="1" vertex="1">
          <mxGeometry x="680" y="3330" width="180" height="50" as="geometry" />
        </mxCell>
        <mxCell id="eq9ACowOTim6wulsKato-9" value="&lt;div&gt;1.实现 ApplicationListener 接口&lt;/div&gt;&lt;div&gt;2.通过@EventListener注解,该会根据方法参数类型来自动监听相应事件的发布&lt;/div&gt;" style="shape=callout;whiteSpace=wrap;html=1;perimeter=calloutPerimeter;flipH=0;direction=south;dashed=1;dashPattern=1 4;" parent="1" vertex="1">
          <mxGeometry x="860" y="3330" width="250" height="50" as="geometry" />
        </mxCell>
        <mxCell id="eq9ACowOTim6wulsKato-10" value="&lt;div&gt;1.调用 ApplicationContext.publishEvent()&amp;nbsp;&amp;nbsp;&lt;/div&gt;&lt;div&gt;2&lt;span style=&quot;background-color: transparent; color: light-dark(rgb(0, 0, 0), rgb(255, 255, 255));&quot;&gt;.调用&lt;/span&gt;&lt;span style=&quot;background-color: transparent; color: light-dark(rgb(0, 0, 0), rgb(255, 255, 255));&quot;&gt;&amp;nbsp;&lt;/span&gt;&lt;span style=&quot;background-color: transparent; color: light-dark(rgb(0, 0, 0), rgb(255, 255, 255));&quot;&gt;ApplicationEventPublisher.publishEvent()&amp;nbsp;&lt;/span&gt;&lt;/div&gt;" style="shape=callout;whiteSpace=wrap;html=1;perimeter=calloutPerimeter;flipH=0;direction=south;dashed=1;dashPattern=1 4;" parent="1" vertex="1">
          <mxGeometry x="860" y="3265" width="310" height="40" as="geometry" />
        </mxCell>
        <mxCell id="eq9ACowOTim6wulsKato-11" value="表示事件本身，自定义事件需要继承该类。用来定义事件" style="shape=callout;whiteSpace=wrap;html=1;perimeter=calloutPerimeter;flipH=0;direction=south;dashed=1;dashPattern=1 4;" parent="1" vertex="1">
          <mxGeometry x="860" y="3190" width="340" height="40" as="geometry" />
        </mxCell>
        <mxCell id="eq9ACowOTim6wulsKato-12" value="&lt;span style=&quot;color: rgb(232, 62, 140); font-family: Consolas, Monaco, &amp;quot;Andale Mono&amp;quot;, &amp;quot;Ubuntu Mono&amp;quot;, monospace; font-size: 14px; font-weight: 400; text-align: left; background-color: rgb(246, 246, 246);&quot;&gt;@&lt;/span&gt;TransactionalEventListener" style="rounded=1;whiteSpace=wrap;html=1;fillColor=#d5e8d4;strokeColor=#82b366;fontStyle=1" parent="1" vertex="1">
          <mxGeometry x="810" y="3415" width="180" height="50" as="geometry" />
        </mxCell>
        <mxCell id="eq9ACowOTim6wulsKato-14" value="&lt;div&gt;@TransactionalEventListener 是对 @EventListener的一个扩展，允许将事件的监听器绑定到事务的某个阶段。可以绑定到以下事务阶段：&lt;/div&gt;&lt;div&gt;&lt;span style=&quot;background-color: transparent; color: light-dark(rgb(0, 0, 0), rgb(255, 255, 255));&quot;&gt;AFTER_COMMIT（默认）：事务提交后&lt;/span&gt;&lt;/div&gt;&lt;div&gt;AFTER_ROLLBACK：事务回滚后&lt;/div&gt;&lt;div&gt;AFTER_COMPLETION：事务完成，包括提交后和回滚后&lt;/div&gt;&lt;div&gt;BEFORE_COMMIT：事务提交前&lt;/div&gt;" style="shape=callout;whiteSpace=wrap;html=1;perimeter=calloutPerimeter;flipH=0;direction=south;dashed=1;dashPattern=1 4;align=left;" parent="1" vertex="1">
          <mxGeometry x="990" y="3390" width="460" height="100" as="geometry" />
        </mxCell>
        <mxCell id="eq9ACowOTim6wulsKato-24" style="edgeStyle=orthogonalEdgeStyle;rounded=0;orthogonalLoop=1;jettySize=auto;html=1;entryX=0;entryY=0.5;entryDx=0;entryDy=0;" parent="1" source="eq9ACowOTim6wulsKato-17" target="eq9ACowOTim6wulsKato-21" edge="1">
          <mxGeometry relative="1" as="geometry" />
        </mxCell>
        <mxCell id="eq9ACowOTim6wulsKato-25" style="edgeStyle=orthogonalEdgeStyle;rounded=0;orthogonalLoop=1;jettySize=auto;html=1;" parent="1" source="eq9ACowOTim6wulsKato-17" target="eq9ACowOTim6wulsKato-22" edge="1">
          <mxGeometry relative="1" as="geometry" />
        </mxCell>
        <mxCell id="eq9ACowOTim6wulsKato-28" style="edgeStyle=orthogonalEdgeStyle;rounded=0;orthogonalLoop=1;jettySize=auto;html=1;entryX=0;entryY=0.5;entryDx=0;entryDy=0;" parent="1" source="eq9ACowOTim6wulsKato-17" target="eq9ACowOTim6wulsKato-27" edge="1">
          <mxGeometry relative="1" as="geometry" />
        </mxCell>
        <mxCell id="eq9ACowOTim6wulsKato-32" style="edgeStyle=orthogonalEdgeStyle;rounded=0;orthogonalLoop=1;jettySize=auto;html=1;entryX=0;entryY=0.5;entryDx=0;entryDy=0;" parent="1" source="eq9ACowOTim6wulsKato-17" target="eq9ACowOTim6wulsKato-29" edge="1">
          <mxGeometry relative="1" as="geometry" />
        </mxCell>
        <mxCell id="eq9ACowOTim6wulsKato-35" style="edgeStyle=orthogonalEdgeStyle;rounded=0;orthogonalLoop=1;jettySize=auto;html=1;entryX=0;entryY=0.5;entryDx=0;entryDy=0;" parent="1" source="eq9ACowOTim6wulsKato-17" target="eq9ACowOTim6wulsKato-33" edge="1">
          <mxGeometry relative="1" as="geometry" />
        </mxCell>
        <mxCell id="eq9ACowOTim6wulsKato-37" style="edgeStyle=orthogonalEdgeStyle;rounded=0;orthogonalLoop=1;jettySize=auto;html=1;entryX=0;entryY=0.5;entryDx=0;entryDy=0;" parent="1" source="eq9ACowOTim6wulsKato-17" target="eq9ACowOTim6wulsKato-36" edge="1">
          <mxGeometry relative="1" as="geometry" />
        </mxCell>
        <mxCell id="eq9ACowOTim6wulsKato-40" style="edgeStyle=orthogonalEdgeStyle;rounded=0;orthogonalLoop=1;jettySize=auto;html=1;entryX=0;entryY=0.5;entryDx=0;entryDy=0;" parent="1" source="eq9ACowOTim6wulsKato-17" target="eq9ACowOTim6wulsKato-39" edge="1">
          <mxGeometry relative="1" as="geometry" />
        </mxCell>
        <mxCell id="eq9ACowOTim6wulsKato-17" value="设计模式" style="rounded=1;whiteSpace=wrap;html=1;fillColor=#d5e8d4;strokeColor=#82b366;fontStyle=1" parent="1" vertex="1">
          <mxGeometry x="400" y="3650" width="180" height="50" as="geometry" />
        </mxCell>
        <mxCell id="eq9ACowOTim6wulsKato-44" style="edgeStyle=orthogonalEdgeStyle;rounded=0;orthogonalLoop=1;jettySize=auto;html=1;entryX=0;entryY=0.5;entryDx=0;entryDy=0;" parent="1" source="eq9ACowOTim6wulsKato-18" target="eq9ACowOTim6wulsKato-42" edge="1">
          <mxGeometry relative="1" as="geometry" />
        </mxCell>
        <mxCell id="eq9ACowOTim6wulsKato-45" style="edgeStyle=orthogonalEdgeStyle;rounded=0;orthogonalLoop=1;jettySize=auto;html=1;entryX=0;entryY=0.5;entryDx=0;entryDy=0;" parent="1" source="eq9ACowOTim6wulsKato-18" target="eq9ACowOTim6wulsKato-43" edge="1">
          <mxGeometry relative="1" as="geometry" />
        </mxCell>
        <mxCell id="eq9ACowOTim6wulsKato-18" value="BeanFactory和FactoryBean的区别" style="rounded=1;whiteSpace=wrap;html=1;fillColor=#d5e8d4;strokeColor=#82b366;fontStyle=1" parent="1" vertex="1">
          <mxGeometry x="400" y="4140" width="200" height="50" as="geometry" />
        </mxCell>
        <mxCell id="eq9ACowOTim6wulsKato-21" value="代理模式" style="rounded=1;whiteSpace=wrap;html=1;fillColor=#f8cecc;strokeColor=#b85450;fontStyle=1" parent="1" vertex="1">
          <mxGeometry x="680" y="3525" width="145" height="50" as="geometry" />
        </mxCell>
        <mxCell id="eq9ACowOTim6wulsKato-22" value="策略模式" style="rounded=1;whiteSpace=wrap;html=1;fillColor=#f8cecc;strokeColor=#b85450;fontStyle=1" parent="1" vertex="1">
          <mxGeometry x="680" y="3620" width="145" height="50" as="geometry" />
        </mxCell>
        <mxCell id="eq9ACowOTim6wulsKato-23" value="&lt;div&gt;所谓代理，是指它与被代理对象实现了相同的接口，客户端必须通过代理才能与被代理的目标类进行交互，而代理一般在交互的过程中（交互前后），进行某些特定的处理，比如在调用这个方法前做前置处理，调用这个方法后做后置处理。&lt;/div&gt;&lt;div&gt;代理又分为静态代理和动态代理两种方式，Spring的AOP采用的是动态代理的方式&lt;span style=&quot;background-color: transparent; color: light-dark(rgb(0, 0, 0), rgb(255, 255, 255));&quot;&gt;Spring通过动态代理对类进行方法级别的切面增强，动态生成目标对象的代理类，并在代理类的方法中设置拦截器，通过执行拦截器中的逻辑增强了代理方法的功能，从而实现AOP。&amp;nbsp;&lt;/span&gt;&lt;/div&gt;" style="shape=callout;whiteSpace=wrap;html=1;perimeter=calloutPerimeter;flipH=0;direction=south;dashed=1;dashPattern=1 4;align=left;position2=0.3;" parent="1" vertex="1">
          <mxGeometry x="825" y="3520" width="805" height="70" as="geometry" />
        </mxCell>
        <mxCell id="eq9ACowOTim6wulsKato-26" value="&lt;div&gt;Spring AOP是通过动态代理来实现的。&lt;/div&gt;&lt;div&gt;具体到代码实现，Spring支持两种动态代理实现方式，一种是JDK提供的动态代理实现方式，另一种是Cglib提供的动态代理实现方式。&lt;/div&gt;&lt;div&gt;Spring会在运行时动态地选择不同的动态代理实现方式。这个应用场景实际上就是策略模式的典型应用场景。&lt;/div&gt;&lt;div&gt;只需要定义一个策略接口，让不同的策略类都实现这一个策略接口。对应到Spring源码，AopProxy是策略接口，JdkDynamicAopProxy、CglibAopProxy是两个实现了AopProxy接口的策略类。&lt;/div&gt;&lt;div&gt;&lt;b&gt;策略模式的典型应用场景，一般是通过环境变量、状态值、计算结果等动态地决定使用哪个策略&lt;/b&gt;。&lt;/div&gt;" style="shape=callout;whiteSpace=wrap;html=1;perimeter=calloutPerimeter;flipH=0;direction=south;dashed=1;dashPattern=1 4;align=left;position2=0.3;" parent="1" vertex="1">
          <mxGeometry x="825" y="3620" width="802.5" height="80" as="geometry" />
        </mxCell>
        <mxCell id="eq9ACowOTim6wulsKato-27" value="单例模式" style="rounded=1;whiteSpace=wrap;html=1;fillColor=#f8cecc;strokeColor=#b85450;fontStyle=1" parent="1" vertex="1">
          <mxGeometry x="680" y="3710" width="145" height="30" as="geometry" />
        </mxCell>
        <mxCell id="eq9ACowOTim6wulsKato-29" value="静态工厂" style="rounded=1;whiteSpace=wrap;html=1;fillColor=#d5e8d4;strokeColor=#82b366;fontStyle=1" parent="1" vertex="1">
          <mxGeometry x="680" y="3760" width="145" height="30" as="geometry" />
        </mxCell>
        <mxCell id="eq9ACowOTim6wulsKato-33" value="观察者" style="rounded=1;whiteSpace=wrap;html=1;fillColor=#d5e8d4;strokeColor=#82b366;fontStyle=1" parent="1" vertex="1">
          <mxGeometry x="680" y="3810" width="145" height="30" as="geometry" />
        </mxCell>
        <mxCell id="eq9ACowOTim6wulsKato-36" value="模板模式" style="rounded=1;whiteSpace=wrap;html=1;fillColor=#d5e8d4;strokeColor=#82b366;fontStyle=1" parent="1" vertex="1">
          <mxGeometry x="680" y="3860" width="145" height="30" as="geometry" />
        </mxCell>
        <mxCell id="eq9ACowOTim6wulsKato-38" value="&lt;div&gt;&lt;span style=&quot;background-color: transparent;&quot;&gt;Spring Bean的创建过程&lt;/span&gt;&lt;span style=&quot;background-color: transparent;&quot;&gt;就涉及模板模式，&lt;/span&gt;&lt;span style=&quot;background-color: transparent;&quot;&gt;Spring能让用户定制Bean的创建过程&lt;/span&gt;&lt;/div&gt;" style="shape=callout;whiteSpace=wrap;html=1;perimeter=calloutPerimeter;flipH=0;direction=south;dashed=1;dashPattern=1 4;align=left;position2=0.3;" parent="1" vertex="1">
          <mxGeometry x="827.5" y="3860" width="472.5" height="40" as="geometry" />
        </mxCell>
        <mxCell id="eq9ACowOTim6wulsKato-39" value="适配器模式" style="rounded=1;whiteSpace=wrap;html=1;fillColor=#d5e8d4;strokeColor=#82b366;fontStyle=1" parent="1" vertex="1">
          <mxGeometry x="680" y="3930" width="145" height="30" as="geometry" />
        </mxCell>
        <mxCell id="eq9ACowOTim6wulsKato-41" value="&lt;div&gt;在应用启动的时候，Spring容器会加载这些Controller类，并且解析出URL对应的处理函数，封装成Handler对象，存储到HandlerMapping对象中。当有请求到来的时候，DispatcherServlet从HanderMapping中，查找请求URL对应的Handler，然后调用执行Handler对应的函数代码，最后将执行结果返回给客户端。&lt;/div&gt;&lt;div&gt;但是，不同方式定义的Controller，其函数的定义（函数名、入参、返回值等）是不统一的。&lt;/div&gt;&lt;div&gt;DispatcherServlet调用的是service()方法，DispatcherServlet需要根据不同类型的Controller，调用不同的函数。&lt;/div&gt;&lt;div&gt;Spring利用适配器模式，将不同方式定义的Controller类中的函数，适配为统一的函数定义。&lt;/div&gt;" style="shape=callout;whiteSpace=wrap;html=1;perimeter=calloutPerimeter;flipH=0;direction=south;dashed=1;dashPattern=1 4;align=left;position2=0.3;" parent="1" vertex="1">
          <mxGeometry x="827.5" y="3910" width="525" height="110" as="geometry" />
        </mxCell>
        <mxCell id="eq9ACowOTim6wulsKato-42" value="BeanFactory" style="rounded=1;whiteSpace=wrap;html=1;fillColor=#d5e8d4;strokeColor=#82b366;fontStyle=1" parent="1" vertex="1">
          <mxGeometry x="680" y="4070" width="150" height="50" as="geometry" />
        </mxCell>
        <mxCell id="eq9ACowOTim6wulsKato-43" value="FactoryBean" style="rounded=1;whiteSpace=wrap;html=1;fillColor=#d5e8d4;strokeColor=#82b366;fontStyle=1" parent="1" vertex="1">
          <mxGeometry x="677.5" y="4190" width="150" height="50" as="geometry" />
        </mxCell>
        <mxCell id="eq9ACowOTim6wulsKato-46" value="&lt;div&gt;1. BeanFactory是一个最基础的IOC容器，提供了依赖查找，依赖注入等基础的功能&lt;/div&gt;&lt;div&gt;2. ApplicationContext继承了BeanFactory，在BeanFactory的基础上增加了企业级的功能，如AOP，资源管理（Resources）事件（Event），国际化（i18n），Environment抽象等&amp;nbsp;&lt;/div&gt;&lt;div&gt;&lt;br&gt;&lt;/div&gt;" style="shape=callout;whiteSpace=wrap;html=1;perimeter=calloutPerimeter;flipH=0;direction=south;dashed=1;dashPattern=1 4;align=left;position2=0.3;" parent="1" vertex="1">
          <mxGeometry x="830" y="4080" width="525" height="60" as="geometry" />
        </mxCell>
        <mxCell id="eq9ACowOTim6wulsKato-47" value="&lt;div&gt;FactoryBean是创建Bean的一种方式，帮助实现复杂Bean的创建&lt;/div&gt;" style="shape=callout;whiteSpace=wrap;html=1;perimeter=calloutPerimeter;flipH=0;direction=south;dashed=1;dashPattern=1 4;align=left;position2=0.3;" parent="1" vertex="1">
          <mxGeometry x="830" y="4205" width="525" height="20" as="geometry" />
        </mxCell>
        <mxCell id="tT5IO1cDAPoozINB5vS--12" style="edgeStyle=orthogonalEdgeStyle;rounded=0;orthogonalLoop=1;jettySize=auto;html=1;entryX=0;entryY=0.5;entryDx=0;entryDy=0;" edge="1" parent="1" source="tT5IO1cDAPoozINB5vS--1" target="tT5IO1cDAPoozINB5vS--11">
          <mxGeometry relative="1" as="geometry" />
        </mxCell>
        <mxCell id="tT5IO1cDAPoozINB5vS--21" style="edgeStyle=orthogonalEdgeStyle;rounded=0;orthogonalLoop=1;jettySize=auto;html=1;entryX=0;entryY=0.5;entryDx=0;entryDy=0;" edge="1" parent="1" source="tT5IO1cDAPoozINB5vS--1" target="tT5IO1cDAPoozINB5vS--20">
          <mxGeometry relative="1" as="geometry" />
        </mxCell>
        <mxCell id="tT5IO1cDAPoozINB5vS--1" value="索引" style="rounded=1;whiteSpace=wrap;html=1;fillColor=#f8cecc;strokeColor=#b85450;fontStyle=1" vertex="1" parent="1">
          <mxGeometry x="110" y="340" width="220" height="80" as="geometry" />
        </mxCell>
        <mxCell id="tT5IO1cDAPoozINB5vS--3" value="B-Tree 索引" style="rounded=1;whiteSpace=wrap;html=1;fillColor=#f8cecc;strokeColor=#b85450;fontStyle=1" vertex="1" parent="1">
          <mxGeometry x="790" y="-30" width="190" height="50" as="geometry" />
        </mxCell>
        <mxCell id="tT5IO1cDAPoozINB5vS--4" value="Bitmap 索引" style="rounded=1;whiteSpace=wrap;html=1;fillColor=#f8cecc;strokeColor=#b85450;fontStyle=1" vertex="1" parent="1">
          <mxGeometry x="790" y="30" width="190" height="50" as="geometry" />
        </mxCell>
        <mxCell id="tT5IO1cDAPoozINB5vS--5" value="Partitioned 索引" style="rounded=1;whiteSpace=wrap;html=1;fillColor=#f8cecc;strokeColor=#b85450;fontStyle=1" vertex="1" parent="1">
          <mxGeometry x="790" y="100" width="190" height="50" as="geometry" />
        </mxCell>
        <mxCell id="tT5IO1cDAPoozINB5vS--6" value="Function-Based 索引" style="rounded=1;whiteSpace=wrap;html=1;fillColor=#d5e8d4;strokeColor=#82b366;fontStyle=1" vertex="1" parent="1">
          <mxGeometry x="790" y="170" width="190" height="50" as="geometry" />
        </mxCell>
        <mxCell id="tT5IO1cDAPoozINB5vS--7" value="Reverse Key 索引" style="rounded=1;whiteSpace=wrap;html=1;fillColor=#d5e8d4;strokeColor=#82b366;fontStyle=1" vertex="1" parent="1">
          <mxGeometry x="790" y="240" width="190" height="50" as="geometry" />
        </mxCell>
        <mxCell id="tT5IO1cDAPoozINB5vS--8" value="Text 索引" style="rounded=1;whiteSpace=wrap;html=1;fillColor=#d5e8d4;strokeColor=#82b366;fontStyle=1" vertex="1" parent="1">
          <mxGeometry x="790" y="310" width="190" height="50" as="geometry" />
        </mxCell>
        <mxCell id="tT5IO1cDAPoozINB5vS--9" value="Spatial 索引" style="rounded=1;whiteSpace=wrap;html=1;fillColor=#d5e8d4;strokeColor=#82b366;fontStyle=1" vertex="1" parent="1">
          <mxGeometry x="790" y="380" width="190" height="50" as="geometry" />
        </mxCell>
        <mxCell id="tT5IO1cDAPoozINB5vS--13" style="edgeStyle=orthogonalEdgeStyle;rounded=0;orthogonalLoop=1;jettySize=auto;html=1;entryX=0;entryY=0.5;entryDx=0;entryDy=0;" edge="1" parent="1" source="tT5IO1cDAPoozINB5vS--11" target="tT5IO1cDAPoozINB5vS--3">
          <mxGeometry relative="1" as="geometry" />
        </mxCell>
        <mxCell id="tT5IO1cDAPoozINB5vS--14" style="edgeStyle=orthogonalEdgeStyle;rounded=0;orthogonalLoop=1;jettySize=auto;html=1;entryX=0;entryY=0.5;entryDx=0;entryDy=0;" edge="1" parent="1" source="tT5IO1cDAPoozINB5vS--11" target="tT5IO1cDAPoozINB5vS--4">
          <mxGeometry relative="1" as="geometry" />
        </mxCell>
        <mxCell id="tT5IO1cDAPoozINB5vS--15" style="edgeStyle=orthogonalEdgeStyle;rounded=0;orthogonalLoop=1;jettySize=auto;html=1;entryX=0;entryY=0.5;entryDx=0;entryDy=0;" edge="1" parent="1" source="tT5IO1cDAPoozINB5vS--11" target="tT5IO1cDAPoozINB5vS--5">
          <mxGeometry relative="1" as="geometry" />
        </mxCell>
        <mxCell id="tT5IO1cDAPoozINB5vS--16" style="edgeStyle=orthogonalEdgeStyle;rounded=0;orthogonalLoop=1;jettySize=auto;html=1;entryX=0;entryY=0.5;entryDx=0;entryDy=0;" edge="1" parent="1" source="tT5IO1cDAPoozINB5vS--11" target="tT5IO1cDAPoozINB5vS--6">
          <mxGeometry relative="1" as="geometry" />
        </mxCell>
        <mxCell id="tT5IO1cDAPoozINB5vS--17" style="edgeStyle=orthogonalEdgeStyle;rounded=0;orthogonalLoop=1;jettySize=auto;html=1;entryX=0;entryY=0.5;entryDx=0;entryDy=0;" edge="1" parent="1" source="tT5IO1cDAPoozINB5vS--11" target="tT5IO1cDAPoozINB5vS--7">
          <mxGeometry relative="1" as="geometry" />
        </mxCell>
        <mxCell id="tT5IO1cDAPoozINB5vS--18" style="edgeStyle=orthogonalEdgeStyle;rounded=0;orthogonalLoop=1;jettySize=auto;html=1;entryX=0;entryY=0.5;entryDx=0;entryDy=0;" edge="1" parent="1" source="tT5IO1cDAPoozINB5vS--11" target="tT5IO1cDAPoozINB5vS--8">
          <mxGeometry relative="1" as="geometry" />
        </mxCell>
        <mxCell id="tT5IO1cDAPoozINB5vS--19" style="edgeStyle=orthogonalEdgeStyle;rounded=0;orthogonalLoop=1;jettySize=auto;html=1;entryX=0;entryY=0.5;entryDx=0;entryDy=0;" edge="1" parent="1" source="tT5IO1cDAPoozINB5vS--11" target="tT5IO1cDAPoozINB5vS--9">
          <mxGeometry relative="1" as="geometry" />
        </mxCell>
        <mxCell id="tT5IO1cDAPoozINB5vS--11" value="类型" style="rounded=1;whiteSpace=wrap;html=1;fillColor=#f8cecc;strokeColor=#b85450;fontStyle=1" vertex="1" parent="1">
          <mxGeometry x="460" y="170" width="170" height="70" as="geometry" />
        </mxCell>
        <mxCell id="tT5IO1cDAPoozINB5vS--29" style="edgeStyle=orthogonalEdgeStyle;rounded=0;orthogonalLoop=1;jettySize=auto;html=1;entryX=0;entryY=0.5;entryDx=0;entryDy=0;" edge="1" parent="1" source="tT5IO1cDAPoozINB5vS--20" target="tT5IO1cDAPoozINB5vS--22">
          <mxGeometry relative="1" as="geometry" />
        </mxCell>
        <mxCell id="tT5IO1cDAPoozINB5vS--30" style="edgeStyle=orthogonalEdgeStyle;rounded=0;orthogonalLoop=1;jettySize=auto;html=1;" edge="1" parent="1" source="tT5IO1cDAPoozINB5vS--20" target="tT5IO1cDAPoozINB5vS--23">
          <mxGeometry relative="1" as="geometry" />
        </mxCell>
        <mxCell id="tT5IO1cDAPoozINB5vS--31" style="edgeStyle=orthogonalEdgeStyle;rounded=0;orthogonalLoop=1;jettySize=auto;html=1;" edge="1" parent="1" source="tT5IO1cDAPoozINB5vS--20" target="tT5IO1cDAPoozINB5vS--24">
          <mxGeometry relative="1" as="geometry" />
        </mxCell>
        <mxCell id="tT5IO1cDAPoozINB5vS--32" style="edgeStyle=orthogonalEdgeStyle;rounded=0;orthogonalLoop=1;jettySize=auto;html=1;entryX=0;entryY=0.5;entryDx=0;entryDy=0;" edge="1" parent="1" source="tT5IO1cDAPoozINB5vS--20" target="tT5IO1cDAPoozINB5vS--25">
          <mxGeometry relative="1" as="geometry" />
        </mxCell>
        <mxCell id="tT5IO1cDAPoozINB5vS--33" style="edgeStyle=orthogonalEdgeStyle;rounded=0;orthogonalLoop=1;jettySize=auto;html=1;entryX=0;entryY=0.5;entryDx=0;entryDy=0;" edge="1" parent="1" source="tT5IO1cDAPoozINB5vS--20" target="tT5IO1cDAPoozINB5vS--26">
          <mxGeometry relative="1" as="geometry" />
        </mxCell>
        <mxCell id="tT5IO1cDAPoozINB5vS--34" style="edgeStyle=orthogonalEdgeStyle;rounded=0;orthogonalLoop=1;jettySize=auto;html=1;entryX=0;entryY=0.5;entryDx=0;entryDy=0;" edge="1" parent="1" source="tT5IO1cDAPoozINB5vS--20" target="tT5IO1cDAPoozINB5vS--27">
          <mxGeometry relative="1" as="geometry" />
        </mxCell>
        <mxCell id="tT5IO1cDAPoozINB5vS--20" value="失效案例" style="rounded=1;whiteSpace=wrap;html=1;fillColor=#f8cecc;strokeColor=#b85450;fontStyle=1" vertex="1" parent="1">
          <mxGeometry x="460" y="560" width="170" height="70" as="geometry" />
        </mxCell>
        <mxCell id="tT5IO1cDAPoozINB5vS--22" value="使用了函数或表达式" style="rounded=1;whiteSpace=wrap;html=1;fillColor=#f8cecc;strokeColor=#b85450;fontStyle=1" vertex="1" parent="1">
          <mxGeometry x="790" y="450" width="190" height="50" as="geometry" />
        </mxCell>
        <mxCell id="tT5IO1cDAPoozINB5vS--23" value="使用了不等运算符" style="rounded=1;whiteSpace=wrap;html=1;fillColor=#f8cecc;strokeColor=#b85450;fontStyle=1" vertex="1" parent="1">
          <mxGeometry x="790" y="510" width="190" height="50" as="geometry" />
        </mxCell>
        <mxCell id="tT5IO1cDAPoozINB5vS--24" value="使用了OR运算符" style="rounded=1;whiteSpace=wrap;html=1;fillColor=#f8cecc;strokeColor=#b85450;fontStyle=1" vertex="1" parent="1">
          <mxGeometry x="790" y="580" width="190" height="50" as="geometry" />
        </mxCell>
        <mxCell id="tT5IO1cDAPoozINB5vS--25" value="NULL值" style="rounded=1;whiteSpace=wrap;html=1;fillColor=#f8cecc;strokeColor=#b85450;fontStyle=1" vertex="1" parent="1">
          <mxGeometry x="790" y="650" width="190" height="50" as="geometry" />
        </mxCell>
        <mxCell id="tT5IO1cDAPoozINB5vS--26" value="数据分布不均" style="rounded=1;whiteSpace=wrap;html=1;fillColor=#d5e8d4;strokeColor=#82b366;fontStyle=1" vertex="1" parent="1">
          <mxGeometry x="790" y="720" width="190" height="50" as="geometry" />
        </mxCell>
        <mxCell id="tT5IO1cDAPoozINB5vS--27" value="统计信息过时或不准确" style="rounded=1;whiteSpace=wrap;html=1;fillColor=#d5e8d4;strokeColor=#82b366;fontStyle=1" vertex="1" parent="1">
          <mxGeometry x="790" y="790" width="190" height="50" as="geometry" />
        </mxCell>
        <mxCell id="tT5IO1cDAPoozINB5vS--35" value="B-Tree（平衡多路查找树）索引是Oracle数据库中最常用的索引类型。B-Tree索引对于&lt;font style=&quot;color: rgb(255, 0, 0);&quot;&gt;高选择性&lt;/font&gt;的查询非常有效，这意味着查询返回的结果集占总行数的一小部分。这种索引类型也支持对索引键进行排序和范围搜索。" style="shape=callout;whiteSpace=wrap;html=1;perimeter=calloutPerimeter;flipH=0;direction=south;dashed=1;dashPattern=1 4;fontColor=#000000;" vertex="1" parent="1">
          <mxGeometry x="980" y="-30" width="640" height="40" as="geometry" />
        </mxCell>
        <mxCell id="tT5IO1cDAPoozINB5vS--36" value="Bitmap索引使用一种称为位图的数据结构，每个位表示一个行的存在或不存在。Bitmap索引非常适合&lt;font style=&quot;color: rgb(255, 0, 0);&quot;&gt;低选择性的&lt;/font&gt;数据，即查询返回的结果集占总行数的很大一部分。另外，Bitmap索引在数据仓库环境中很常用，因为它可以高效地处理多个Bitmap索引之间的AND和OR操作。" style="shape=callout;whiteSpace=wrap;html=1;perimeter=calloutPerimeter;flipH=0;direction=south;dashed=1;dashPattern=1 4;fontColor=#000000;" vertex="1" parent="1">
          <mxGeometry x="980" y="40" width="640" height="40" as="geometry" />
        </mxCell>
        <mxCell id="tT5IO1cDAPoozINB5vS--37" value="Partitioned索引是与表分区配合使用的。表分区可以按不同的方式划分数据，同样，索引也可以按相同或不同的方式进行分区。每个分区索引对应一个表分区。分区索引可以是B-Tree索引或Bitmap索引。" style="shape=callout;whiteSpace=wrap;html=1;perimeter=calloutPerimeter;flipH=0;direction=south;dashed=1;dashPattern=1 4;fontColor=#000000;" vertex="1" parent="1">
          <mxGeometry x="980" y="110" width="640" height="40" as="geometry" />
        </mxCell>
        <mxCell id="tT5IO1cDAPoozINB5vS--38" value="Function-Based索引是在某个函数的结果上建立的。这个函数可以是内置函数（例如，UPPER, LOWER）或用户定义函数。Function-Based索引对于处理复杂查询和改善特定类型的查询性能非常有用。&lt;div&gt;&lt;span style=&quot;background-color: transparent; color: light-dark(rgb(0, 0, 0), rgb(237, 237, 237));&quot;&gt;CREATE INDEX emp_name_upper_idx ON employees (&lt;/span&gt;&lt;span style=&quot;background-color: transparent;&quot;&gt;&lt;font style=&quot;color: light-dark(rgb(255, 0, 0), rgb(237, 237, 237));&quot;&gt;UPPER&lt;/font&gt;&lt;/span&gt;&lt;span style=&quot;background-color: transparent; color: light-dark(rgb(0, 0, 0), rgb(237, 237, 237));&quot;&gt;(last_name));&lt;/span&gt;&lt;/div&gt;" style="shape=callout;whiteSpace=wrap;html=1;perimeter=calloutPerimeter;flipH=0;direction=south;dashed=1;dashPattern=1 4;fontColor=#000000;align=left;" vertex="1" parent="1">
          <mxGeometry x="980" y="170" width="640" height="50" as="geometry" />
        </mxCell>
        <mxCell id="tT5IO1cDAPoozINB5vS--39" value="Reverse Key索引和B-Tree索引类似，只不过它将索引键的字节反转。这种索引类型主要用于减少索引键插入的热点，&lt;font style=&quot;color: rgb(255, 0, 0);&quot;&gt;适用于有大量插入操作的索引&lt;/font&gt;。&lt;div&gt;CREATE INDEX emp_id_reverse_idx ON employees (employee_id) &lt;font style=&quot;color: rgb(255, 0, 0);&quot;&gt;REVERSE&lt;/font&gt;;&lt;br&gt;&lt;div&gt;&lt;span style=&quot;color: rgba(0, 0, 0, 0); font-family: monospace; font-size: 0px; text-wrap-mode: nowrap;&quot;&gt;%3CmxGraphModel%3E%3Croot%3E%3CmxCell%20id%3D%220%22%2F%3E%3CmxCell%20id%3D%221%22%20parent%3D%220%22%2F%3E%3CmxCell%20id%3D%222%22%20value%3D%22Reverse%20Key%E7%B4%A2%E5%BC%95%E5%92%8CB-Tree%E7%B4%A2%E5%BC%95%E7%B1%BB%E4%BC%BC%EF%BC%8C%E5%8F%AA%E4%B8%8D%E8%BF%87%E5%AE%83%E5%B0%86%E7%B4%A2%E5%BC%95%E9%94%AE%E7%9A%84%E5%AD%97%E8%8A%82%E5%8F%8D%E8%BD%AC%E3%80%82%E8%BF%99%E7%A7%8D%E7%B4%A2%E5%BC%95%E7%B1%BB%E5%9E%8B%E4%B8%BB%E8%A6%81%E7%94%A8%E4%BA%8E%E5%87%8F%E5%B0%91%E7%B4%A2%E5%BC%95%E9%94%AE%E6%8F%92%E5%85%A5%E7%9A%84%E7%83%AD%E7%82%B9%EF%BC%8C%26lt%3Bfont%20style%3D%26quot%3Bcolor%3A%20rgb(255%2C%200%2C%200)%3B%26quot%3B%26gt%3B%E9%80%82%E7%94%A8%E4%BA%8E%E6%9C%89%E5%A4%A7%E9%87%8F%E6%8F%92%E5%85%A5%E6%93%8D%E4%BD%9C%E7%9A%84%E7%B4%A2%E5%BC%95%26lt%3B%2Ffont%26gt%3B%E3%80%82%26lt%3Bdiv%26gt%3B%26lt%3Bspan%20style%3D%26quot%3Bcolor%3A%20rgb(89%2C%2089%2C%2089)%3B%20font-family%3A%20SFMono-Regular%2C%20Consolas%2C%20%26amp%3Bquot%3BLiberation%20Mono%26amp%3Bquot%3B%2C%20Menlo%2C%20Courier%2C%20monospace%3B%20font-size%3A%2013px%3B%20font-variant-ligatures%3A%20contextual%3B%20letter-spacing%3A%200.7px%3B%20white-space%3A%20pre%3B%20background-color%3A%20rgb(249%2C%20249%2C%20249)%3B%26quot%3B%26gt%3BCREATE%20INDEX%20emp_id_reverse_idx%20ON%20employees%20(employee_id)%20REVERSE%3B%26lt%3B%2Fspan%26gt%3B%26lt%3B%2Fdiv%26gt%3B%22%20style%3D%22shape%3Dcallout%3BwhiteSpace%3Dwrap%3Bhtml%3D1%3Bperimeter%3DcalloutPerimeter%3BflipH%3D0%3Bdirection%3Dsouth%3Bdashed%3D1%3BdashPattern%3D1%204%3BfontColor%3D%23000000%3Balign%3Dleft%3B%22%20vertex%3D%221%22%20parent%3D%221%22%3E%3CmxGeometry%20x%3D%22980%22%20y%3D%22245%22%20width%3D%22640%22%20height%3D%2240%22%20as%3D%22geometry%22%2F%3E%3C%2FmxCell%3E%3C%2Froot%3E%3C%2FmxGraphModel%3E&lt;/span&gt;&lt;/div&gt;&lt;/div&gt;" style="shape=callout;whiteSpace=wrap;html=1;perimeter=calloutPerimeter;flipH=0;direction=south;dashed=1;dashPattern=1 4;fontColor=#000000;align=left;" vertex="1" parent="1">
          <mxGeometry x="980" y="240" width="640" height="45" as="geometry" />
        </mxCell>
        <mxCell id="tT5IO1cDAPoozINB5vS--40" value="Text索引用于全文搜索，可以搜索包含某个词或短语的文档。" style="shape=callout;whiteSpace=wrap;html=1;perimeter=calloutPerimeter;flipH=0;direction=south;dashed=1;dashPattern=1 4;fontColor=#000000;align=left;" vertex="1" parent="1">
          <mxGeometry x="980" y="315" width="370" height="45" as="geometry" />
        </mxCell>
        <mxCell id="tT5IO1cDAPoozINB5vS--41" value="Spatial索引用于空间数据，可以搜索在某个地理区域内的数据。" style="shape=callout;whiteSpace=wrap;html=1;perimeter=calloutPerimeter;flipH=0;direction=south;dashed=1;dashPattern=1 4;fontColor=#000000;align=left;" vertex="1" parent="1">
          <mxGeometry x="980" y="382.5" width="370" height="45" as="geometry" />
        </mxCell>
      </root>
    </mxGraphModel>
  </diagram>
</mxfile>
